<svg id="Calque_1" data-name="Calque 1" xmlns="http://www.w3.org/2000/svg" viewBox="0 0 570.48 230.16"><defs><style>.cls-1{fill:#5a2082;}.cls-2{fill:#fefefe;}.cls-3{fill:#8a33ae;}.cls-4{fill:#181769;}.cls-5{fill:#a02ea8;}.cls-6{fill:#1f1d86;}.cls-7{fill:#d03cdb;}.cls-8{fill:#d274e0;}.cls-9{fill:#af46c5;}.cls-10{fill:#bd36c6;}.cls-11{fill:#702a9d;}.cls-12{fill:#432285;}.cls-13{fill:#522aa3;}.cls-14{fill:#a731b8;}.cls-15{fill:#9a2eae;}.cls-16{fill:#311a73;}.cls-17{fill:#e35ded;}.cls-18{fill:#d172df;}.cls-19{fill:#ab50c4;}.cls-20{fill:#ac51c5;}.cls-21{fill:#b65bcd;}.cls-22{fill:#a34dc6;}.cls-23{fill:#9a49bb;}.cls-24{fill:#8031b6;}.cls-25{fill:#9848bb;}.cls-26{fill:#632ba8;}.cls-27{fill:#402290;}.cls-28{fill:#773cac;}.cls-29{fill:#763cac;}.cls-30{fill:#612ba6;}.cls-31{fill:#fe9afe;}.cls-32{fill:#ee8bf3;}.cls-33{fill:#cf54de;}.cls-34{fill:#cf55de;}.cls-35{fill:#f07af5;}</style></defs><path class="cls-1" d="M1245.45,425.3q0,114.36,0,228.72c0,1-.28,1.14-1.19,1.14q-284.52,0-569,0a2.62,2.62,0,0,1-.11-1.3q0-113.6,0-227.18c0-1.64-.19-1.48,1.47-1.48h567.52A2.66,2.66,0,0,1,1245.45,425.3Z" transform="translate(-675 -425)"/><path class="cls-2" d="M1245.45,425.3H677.08a9.73,9.73,0,0,1-1.08,0c-.57-.05-.81.15-.74.74,0,.31,0,.64,0,1V655.14c-.07,0-.25.12-.24-.12s0-.64,0-1q0-114,0-227.92c0-.9.2-1.1,1.1-1.1l568.27,0C1244.72,425.08,1245.18,424.8,1245.45,425.3Z" transform="translate(-675 -425)"/><path class="cls-3" d="M740.25,582a73.25,73.25,0,0,1,0-18.36,61.57,61.57,0,0,1,1.55-7.3,63.57,63.57,0,0,1,6.6-15.56,62.5,62.5,0,0,1,12.55-15,55.49,55.49,0,0,1,7.79-5.74,78.77,78.77,0,0,1,8.92-4.66c1.28-.57,2.67-1,4-1.46a61.27,61.27,0,0,1,5.9-1.74c2-.48,4-.71,6-1.11,5.06-1,10.17-.73,15.22-.31A40.8,40.8,0,0,1,816,512.1a66.69,66.69,0,0,1,7.72,2.3,62.5,62.5,0,0,1,9.39,4.47,92.36,92.36,0,0,1,7.91,5.37,2.58,2.58,0,0,1,1.21,2.26c-.07,6.39-.05,12.77-.07,19.16-1.19.36-2.27-.19-3.32-.54a22.77,22.77,0,0,0-4.3-1c-.39-.19-.74-.48-1.22-.32-1.79-.15-3.58-.24-5.37-.44a24.42,24.42,0,0,0-5.59.42,1.51,1.51,0,0,0-1.21.34c-3,.88-5.94,2-8.12,4.3a11.91,11.91,0,0,0-3,4.07,2.32,2.32,0,0,1-2.4,1.6c-2.47,0-5-.21-7.37.49a1.56,1.56,0,0,0-1,.33,22,22,0,0,0-8.16,4.48,17.35,17.35,0,0,0-4,4.78,12.49,12.49,0,0,0-1.48,3.62c-.2,1.08-.66,2.1-.84,3.21-.13.78-1,1-1.66,1.22a12.11,12.11,0,0,0-6.45,4.45,13.22,13.22,0,0,0-2.3,5.3,2.6,2.6,0,0,1-2.23,2.41,12.28,12.28,0,0,0-5.82,3.11,12.83,12.83,0,0,1-6.44-.63c-2.18-1.61-4.62-1.47-7.09-1a2.42,2.42,0,0,1-1.41-.08,88.38,88.38,0,0,0-10.3-3A.94.94,0,0,1,740.25,582Z" transform="translate(-675 -425)"/><path class="cls-4" d="M842.16,607.22q0,8.49,0,17c-.36.26-.77.13-1.16.13H691.53c-1.27,0-1.27,0-1.27-1.32q0-1.08,0-2.16c.36-1.53,1.83-1.74,2.9-2.42,2.62-1.69,5.61-2.63,8.37-4.07a45,45,0,0,1,4.77-1.87,88.09,88.09,0,0,1,14.49-4,54.1,54.1,0,0,1,13.68-1.15,10.5,10.5,0,0,1,3,.59,45.91,45.91,0,0,0,4.54,1c3.38.82,6.62,2,10,3s6.9,2.26,10.57,2.35c.89,0,1.67.58,2.57.47a34.33,34.33,0,0,1,3.66-.54,27.83,27.83,0,0,0,6.35-1.06c2.27-.59,4.61-.85,6.84-1.61a12.65,12.65,0,0,1,2.14-.27c2.75-.44,5.48-1,8.25-1.38,2.56-.34,5.19-.42,7.69-1,3.2-.71,6.47-.31,9.62-.92,3.63-.71,7.32-.38,10.94-.92,6.19-.91,12.42-.67,18.63-.68A3.56,3.56,0,0,1,842.16,607.22Z" transform="translate(-675 -425)"/><path class="cls-5" d="M690.37,593.78V585a1.74,1.74,0,0,0,.11-.18,1.24,1.24,0,0,1,1.13-.19,19.14,19.14,0,0,1,4.12.66,4.09,4.09,0,0,0,1.3.18c4.91.17,9.83.48,14.71-.2,2.12-.3,4.27-.46,6.38-.86,3.1-.61,6.28-.55,9.36-1.07,3.73-.63,7.16.3,10.66,1.13a37,37,0,0,1,6.22,2.09c1.92.85,3.87,1.66,5.79,2.52,1.3.59,2.65,1.08,4,1.68a4,4,0,0,1,2.16,1.56,1.06,1.06,0,0,1-1.08,1.06,13.75,13.75,0,0,1-1.41.22c-2.81.07-5.5.85-8.25,1.27-3.77.57-7.52,1.31-11.27,2-3.31.65-6.63,1.32-9.94,2s-6.45,1.38-9.69,2c-2.92.59-5.83,1.24-8.79,1.64-.6.09-1.19,0-1.78,0-1.15.24-1.82-.63-2.61-1.18-2.47-1.73-5-3.4-7.53-5A14.67,14.67,0,0,1,690.37,593.78Z" transform="translate(-675 -425)"/><path class="cls-6" d="M842.16,607.22a97.89,97.89,0,0,0-11.49-.23,45.1,45.1,0,0,0-7.64.32c-3.72.64-7.49.26-11.14.94-3.12.59-6.28.31-9.36.87-2.74.5-5.52.62-8.26,1-3.92.56-7.83,1.23-11.71,2-2.36.46-4.73,1-7.07,1.61a31.69,31.69,0,0,1-8,1.17c-.73,0-1.31.61-2.07.47-3.74-.65-7.57-.72-11.16-2.19-1.19-.48-2.5-.71-3.75-1.11-3.4-1.08-6.84-2.08-10.29-3a31.37,31.37,0,0,0-12.64-1c-2.32.34-4.67.49-6.94,1-2.93.66-5.84,1.47-8.75,2.21a69.66,69.66,0,0,0-9.63,3.42,48,48,0,0,0-7.81,3.7c-1.29.84-2.72,1.45-4.08,2.16a45.16,45.16,0,0,1-.11-5.7,1.39,1.39,0,0,1,.78-1.13,28.61,28.61,0,0,1,4.61-2.44c1.82-.79,3.63-1.63,5.39-2.53a21.93,21.93,0,0,0,3.06-1.33,49.35,49.35,0,0,0,5.32-1.88c1.56-.21,2.93-1.07,4.51-1.2.53,0,.9-.47,1.32-.74a32.43,32.43,0,0,1,3.9-.67,3.75,3.75,0,0,0,1.08-.33c1-.07,1.94-.29,2.91-.44a20.48,20.48,0,0,0,5.8.13,24,24,0,0,1,5.8.29c.4.05.73.32,1.14.34a44,44,0,0,1,6.53,1.35,49.89,49.89,0,0,1,8.05,2.65c.91.38,2,.32,2.74,1.09a59.3,59.3,0,0,0,5.66,2,6.8,6.8,0,0,0,2.55.56A1.61,1.61,0,0,0,763,611a98.06,98.06,0,0,0,12.47-1.1,62.52,62.52,0,0,0,6.55-1.27c1.85-.43,3.71-.91,5.53-1.4,2.19-.59,4.46-.84,6.61-1.61.7-.25,1.51-.08,2.21-.42,2.16-1,4.49-.9,6.76-1.25a7.2,7.2,0,0,0,1.12-.33c2.84-.4,5.7-.36,8.55-.53.75.33,1.33-.16,2-.42,1.57-.21,3.16,0,4.73-.2a7.8,7.8,0,0,0,2.81-.05c4.1-.14,8.21-.23,12.31,0,1.64.11,3.27.06,4.9.13a4,4,0,0,1,2.72,1C842.19,604.81,842.18,606,842.16,607.22Z" transform="translate(-675 -425)"/><path class="cls-7" d="M842.16,570.79c0,3,0,6,0,9a2,2,0,0,1-.32.61,91.35,91.35,0,0,1-9.22,9.13c-2,1.72-3.87,3.52-5.87,5.22a37.46,37.46,0,0,1-4.7,3.26,1.49,1.49,0,0,1-1.27.15c-3.94-1.1-7.83-2.38-11.8-3.4-2.26-.58-4.57-1-6.87-1.46-2.83-.56-5.72-.48-8.52-1-3.93-.75-7.85-.54-11.79-.64-.58,0-1.21.11-1.7-.37-.13-1.21,1-1.22,1.59-1.31,2.44-.4,4.79-1.18,7.22-1.66a70.92,70.92,0,0,0,8.22-2.44c3.75-1.21,7.33-2.85,11-4.22,2.09-.77,4.11-1.73,6.17-2.57,1-.41,2.11-.7,3.16-1.07a37.26,37.26,0,0,1,5.76-2c2.57-.47,5.09-1.34,7.75-1.3,2.13,0,4.16-.64,6.27-.83.87-.08,1.75-.11,2.62-.15,1.28,0,1.44-.2,1.54-1.45,0-.51-.06-1.06.36-1.47A.42.42,0,0,1,842.16,570.79Z" transform="translate(-675 -425)"/><path class="cls-8" d="M842.16,570.79l-.17,0-.19-.14a3.6,3.6,0,0,1-.38-2.09q0-6.17,0-12.34a36,36,0,0,0,0-4.28,1,1,0,0,0-.89-1,39.62,39.62,0,0,0-15-.69,17.28,17.28,0,0,0-10.67,6.09,10.19,10.19,0,0,0-1.57,2.66,1.8,1.8,0,0,1-1.73,1.23q-.9,0-1.8,0a24.93,24.93,0,0,0-10.94,2.54,18.73,18.73,0,0,0-9.56,10.33c-.53,1.27-.65,2.7-1.13,4a1.93,1.93,0,0,1-1.45,1.39,11.48,11.48,0,0,0-6.15,3.88,13,13,0,0,0-1.67,2.87,5.47,5.47,0,0,1-1.45,2.15c-1.49.42-3.06.39-4.57.77-2,.49-3.92-.3-5.88-.51a.57.57,0,0,1-.53-.67c1.08-1.85,2.94-2.52,4.83-3.05a7.13,7.13,0,0,1,1.92-.59c.33,0,.4-.36.43-.64a15.67,15.67,0,0,1,2.09-5.75A11.35,11.35,0,0,1,781,572.4a2.6,2.6,0,0,1,.79-.29c3-.31,2.73-2.87,3.35-4.82a15.79,15.79,0,0,1,4.94-7.76c1.4-1.14,2.64-2.53,4.33-3.25s3-1.7,4.83-1.83c.23-.2.56-.21.77-.44a24.87,24.87,0,0,1,7.5-.45,2,2,0,0,0,2.06-1.39A13.71,13.71,0,0,1,815,546.1a14.72,14.72,0,0,1,6.1-2.44c.27-.28.73-.13,1-.44,3.82-.84,7.65-.28,11.47,0,.28.27.73.14,1,.42,2.7,0,5.14,1,7.6,2Z" transform="translate(-675 -425)"/><path class="cls-9" d="M690.36,585a24.8,24.8,0,0,1-.18-5.24c0-8.34-.07-16.68,0-25,0-2.74.1-5.48.1-8.34a20,20,0,0,1,10.33,6.83,19.45,19.45,0,0,1,4.12,7.35,1.26,1.26,0,0,0,.29.63c.93.94-.2,2.94,1.42,3.29a19.7,19.7,0,0,1,3.66.82,18.68,18.68,0,0,1,7.24,5.39A21,21,0,0,1,721,577a21.33,21.33,0,0,1,1.32,4.54.54.54,0,0,1,0,.63,12,12,0,0,1-5.85.78,2.32,2.32,0,0,1-1.53-1.53,19.91,19.91,0,0,0-7.16-9,13.3,13.3,0,0,0-6.11-2.26c-1.1-.1-1.42-.77-1.72-1.67a34.58,34.58,0,0,0-1.61-4.86,19.81,19.81,0,0,0-3.26-5,38.78,38.78,0,0,0-2.78-2.81c-.32-.28-.61-.81-1.06-.65s-.29.84-.3,1.28c0,2.28,0,4.55,0,6.82-.38.71,0,1.42,0,2.12,0,5.06.06,10.12,0,15.18-.19.94.13,1.87,0,2.8-.06.54,0,1.12-.54,1.47Z" transform="translate(-675 -425)"/><path class="cls-10" d="M716.27,582.53c2,.16,4-.58,6-.49.19-.24.53-.24.74-.44a74.94,74.94,0,0,1,14.13,0c.29.28.73.16,1,.41l2.08,0c2.11.49,4.24.92,6.33,1.49,1.4.38,2.75,1,4.13,1.42a6.67,6.67,0,0,0,2.07.5c.23.22.53.19.82.23a10.12,10.12,0,0,1,3.29,1.23,44.64,44.64,0,0,1,5.5,3c.64.44,1.43.73,1.61,1.62a.73.73,0,0,1-.26.57,7.45,7.45,0,0,1-2.76.5c-1.17.12-2.36,0-3.53.21a1.16,1.16,0,0,1-1.35-.49c-3.48-1.6-7.07-3-10.54-4.59a62.94,62.94,0,0,0-9.84-3.41c-1.68-.46-3.44-.46-5.16-.78s-3.65.54-5.53.52a22.33,22.33,0,0,0-4.15.38c-1.83.32-3.69.5-5.51.82a72.88,72.88,0,0,1-19.62.51,26.08,26.08,0,0,1-5.37-.95c0-1.43,0-2.85,0-4.28a.93.93,0,0,1,.79-.17c4,.54,7.93,1.08,11.89,1.68,1.54.23,3.07.29,4.6.42a6.33,6.33,0,0,0,2.7.17A30.51,30.51,0,0,1,716.27,582.53Z" transform="translate(-675 -425)"/><path class="cls-11" d="M841.76,580.16l.42-.33,0,23.78c-6.21-.9-12.47-.68-18.71-.72a34.5,34.5,0,0,1-4.06.2c-.07-.79.62-1,1.09-1.26q3.79-2.12,7.44-4.5c4.37-2.85,8.38-6.16,12.52-9.31a2.24,2.24,0,0,0,1-2c0-1.55,0-3.11,0-4.67A3.32,3.32,0,0,1,841.76,580.16Z" transform="translate(-675 -425)"/><path class="cls-12" d="M704.3,608c-2,.94-4,1.85-6,2.81a74.17,74.17,0,0,0-7.39,3.74,1.22,1.22,0,0,0-.54,1.22c0,1.63,0,3.27,0,4.9,0,.84,0,1.68,0,2.52s.34,1.16,1.14,1.1a7.85,7.85,0,0,1,.84,0H840.53c.56,0,1.12,0,1.67,0-.4.36-.9.26-1.37.26q-74.6,0-149.2,0c-1.12,0-1.53-.3-1.52-1.48,0-6.67,0-13.34,0-20a6.63,6.63,0,0,1,.24-1.77,3,3,0,0,1,2.16.45,72.87,72.87,0,0,1,9,4.2c.55.33,1.18.49,1.75.76A1.59,1.59,0,0,1,704.3,608Z" transform="translate(-675 -425)"/><path class="cls-13" d="M704.3,608c-2.44-1.28-4.83-2.71-7.36-3.78a39.71,39.71,0,0,0-5.48-2.26,2.45,2.45,0,0,1-1.09-.69v-7.44a3.75,3.75,0,0,1,1.91.89c2.93,1.9,5.91,3.73,8.83,5.66.9.59,1.6,1.51,2.69,1.85a18.5,18.5,0,0,1,5,3c.24.3.76.33.8.83-.49.73-1.36.56-2,.82C706.49,607.27,705.54,608.05,704.3,608Z" transform="translate(-675 -425)"/><path class="cls-14" d="M738.17,582c-.41,0-.83.08-1-.41C737.55,581.56,738,581.49,738.17,582Z" transform="translate(-675 -425)"/><path class="cls-15" d="M723,581.6c-.12.36-.4.44-.74.44,0-.17,0-.33,0-.5Z" transform="translate(-675 -425)"/><path class="cls-16" d="M725.6,516.3a1.77,1.77,0,0,1-.36.11s-.08-.09-.12-.13a1.92,1.92,0,0,1,.31-.11S725.52,516.24,725.6,516.3Z" transform="translate(-675 -425)"/><path class="cls-17" d="M763.78,591.39c-2.37-1.35-4.72-2.72-7.1-4-1-.56-2.14-1-3.21-1.48.63-.63,1.43-.37,2.14-.32a16.58,16.58,0,0,1,4.41.76,16.66,16.66,0,0,0,6.39.75c2.39.13,4.68,1.26,7.18.35a15,15,0,0,1,3.89-.36,11.08,11.08,0,0,1,4.36-1.45,51.62,51.62,0,0,0,8.91-2.48,1.28,1.28,0,0,1,.47-.07,26.66,26.66,0,0,0,4-1.6c2.76-1.21,5.59-2.27,8.3-3.6s5.64-2.56,8.52-3.68c2.22-.86,4.53-1.49,6.82-2.16a28.42,28.42,0,0,1,8.44-1.34c.5.12.83-.36,1.28-.38,4-.56,7.91-.26,11.86-.3.6,0,1.22,0,1.53.69l.06.12c0,.75,0,1.51,0,2.27s-.32,1.36-1.26,1.29a14.15,14.15,0,0,0-4.51.29c-2.66.67-5.39.42-8,1a67.06,67.06,0,0,0-11,3.19c-2.28.89-4.66,1.59-6.87,2.62-2.87,1.34-5.91,2.26-8.8,3.55a68.1,68.1,0,0,1-6.84,2.35c-2.53.83-5.09,1.48-7.68,2.06-2.31.52-4.6,1.14-6.89,1.72-.35.68-1,.57-1.58.58-2.3,0-4.6.07-6.9,0s-4.35.49-6.54.17C764.62,591.74,764.12,591.77,763.78,591.39Z" transform="translate(-675 -425)"/><path class="cls-18" d="M760,586.32l-6.55-.44c-.32,0-.63,0-.69-.45a14.42,14.42,0,0,1,4.86-.08A11.64,11.64,0,0,1,760,586.32Z" transform="translate(-675 -425)"/><path class="cls-19" d="M834.56,543.67c-.4,0-.82.07-1-.42C834,543.21,834.37,543.18,834.56,543.67Z" transform="translate(-675 -425)"/><path class="cls-20" d="M822.08,543.22c-.17.51-.58.48-1,.44C821.27,543.19,821.68,543.22,822.08,543.22Z" transform="translate(-675 -425)"/><path class="cls-21" d="M800,554a.63.63,0,0,1-.77.44C799.37,554.07,799.66,554,800,554Z" transform="translate(-675 -425)"/><path class="cls-22" d="M765,591.4c5-.38,10.06-.18,15.09-.29,2,0,4,.1,6,0a60.83,60.83,0,0,1,9.81.87,32.35,32.35,0,0,1,4,.32c3.48.85,7.08,1.13,10.51,2.32,1.52.52,3.13.85,4.71,1.25,2,.52,4,1.39,6,2-.27,1.06-1,1.56-2.55,1.74a7.53,7.53,0,0,0-2.12-.28c-1.82-.07-3.59-.61-5.42-.76s-3.51-.12-5.25-.39c-3.62-.58-7.32-.49-10.92-1.09-2.86-.47-5.72-.22-8.56-.56-2.14-.26-4.34-.08-6.45-.38a74.27,74.27,0,0,0-9.87-.58,89.39,89.39,0,0,0-12.12,1c-3.92.5-7.75,1.42-11.63,2.12s-7.49,1.47-11.24,2.18c-2.57.49-5.07,1.37-7.71,1.57-1.42.11-2.83.32-4.25.4l-2.85.3c-.23.19-.55.22-.78.4l-4,.55a30.72,30.72,0,0,1-6.77,1.45c-1.6-.81-3-2-4.49-2.9a.67.67,0,0,1-.31-.48,32.39,32.39,0,0,0,5.4-.84c1.15-.34,2.43-.31,3.64-.57,3.17-.68,6.38-1.2,9.52-2,3.35-.85,6.79-1.22,10.12-2.11,1.89-.5,3.85-.55,5.72-1,3-.72,6-1.17,9-1.72a53.17,53.17,0,0,1,7.75-1.1,1.5,1.5,0,0,0,1.17-.49l7.7-.49C764.12,591.49,764.67,591.76,765,591.4Z" transform="translate(-675 -425)"/><path class="cls-23" d="M723,602.86c2-.39,4-.65,5.92-1.2,1.75-.5,3.59-.59,5.32-1.24a17.11,17.11,0,0,1,3.16-.55c2-.34,4.09-.69,6.05-1.18,2.27-.56,4.59-1,6.86-1.39,3.61-.68,7.24-1.36,10.93-1.69a93,93,0,0,1,10.93-.6c2.1.07,4.24,0,6.32.27,5,.66,10,.62,15,1,2.23.16,4.48.5,6.72.74l1.31.13c4.34.41,8.7.69,13,1.29,1.39.2,2.82.32,4.21.63-.05,1.34-1.24,1.36-2.05,1.64-4.75,1.62-9.61,1.34-14.43.5-2.21-.39-4.45-.47-6.62-.93-4.59-1-9.22-.68-13.84-.62a43,43,0,0,0-18.19,4c-3,1.43-6,2.89-8.89,4.61-.55.33-1.21,0-1.73.39-.85-.87-2.09-1-3.12-1.29a75.83,75.83,0,0,0-8.69-2.65c-1.81-.37-3.6-.82-5.43-1.09-.23-.19-.55-.21-.77-.42C731,602.69,727,603,723,602.86Z" transform="translate(-675 -425)"/><path class="cls-24" d="M753,608.6c.5-.86,1.49-1.06,2.24-1.45a92.34,92.34,0,0,1,12.46-5.84,50.45,50.45,0,0,1,7.31-1.62c4-.73,8.08-.49,12.12-.65a65.62,65.62,0,0,1,12,1.1c4.09.59,8.15,1.41,12.32,1.07a16.39,16.39,0,0,0,7.34-2.15c1,0,1.59-.79,2.38-1.19a13.87,13.87,0,0,0,3.7-2.31c3.26-2.48,6.14-5.41,9.24-8.07,2.44-2.1,4.54-4.51,6.83-6.75a5.45,5.45,0,0,1,.89-.58c.46,2.37.14,4.76.19,7.14,0,.35-.26.56-.52.76-3.65,2.77-7.23,5.64-11,8.3a90.49,90.49,0,0,1-11,6.73l-4.77.07c-.51.42-1.22,0-1.73.42l-8.84.53c-.21.21-.54.22-.76.42-1.87.36-3.85,0-5.65.93a3.4,3.4,0,0,1-1.29.07,32.25,32.25,0,0,0-3.68-.12,38.94,38.94,0,0,1-6.63-.69,3.42,3.42,0,0,0-2.35.18,2.85,2.85,0,0,1-1.29.2,30.71,30.71,0,0,0-5.84.35,24.94,24.94,0,0,0-6.24,1.4,15.79,15.79,0,0,1-2,.42,63.3,63.3,0,0,0-7.38,3.05,3.18,3.18,0,0,1-2.3.27,12.31,12.31,0,0,1-3.66-1.21C754.37,609.12,753.65,608.9,753,608.6Z" transform="translate(-675 -425)"/><path class="cls-11" d="M758.71,610.59a3.44,3.44,0,0,0,1.55-.49,52.94,52.94,0,0,1,9.34-3.74,33,33,0,0,0,5.15-1.24c1.38-.61,2.92-.32,4.38-.39,2.25-.1,4.51-.89,6.71-.56,2.75.41,5.52.46,8.26.82.76.1,1.72-.38,2.3.54-2,.72-4.11,1.11-6.17,1.63l-5.59,1.45c-2.31.61-4.69,1.08-7.06,1.5-3,.53-6.06.64-9.07,1.06-1.91.27-3.78.25-5.67.33-.42-.4-1.06,0-1.47-.44A6.21,6.21,0,0,1,758.71,610.59Z" transform="translate(-675 -425)"/><path class="cls-25" d="M708.6,605.56c.13-.49.56-.55.95-.56,2,0,3.85-.76,5.82-.89a.53.53,0,0,1-.49.44c-1.84.24-3.48,1.18-5.29,1.5A1.28,1.28,0,0,1,708.6,605.56Z" transform="translate(-675 -425)"/><path class="cls-26" d="M812.94,603.58c.44-.72,1.13-.37,1.73-.42C814.23,603.88,813.54,603.54,812.94,603.58Z" transform="translate(-675 -425)"/><path class="cls-27" d="M761.37,611.06c.52,0,1.13-.23,1.47.44C762.31,611.47,761.7,611.73,761.37,611.06Z" transform="translate(-675 -425)"/><path class="cls-28" d="M719.38,603.56a.62.62,0,0,1,.78-.4C720,603.56,719.73,603.61,719.38,603.56Z" transform="translate(-675 -425)"/><path class="cls-29" d="M735,603.15c.35,0,.64.05.77.42C735.36,603.64,735.07,603.56,735,603.15Z" transform="translate(-675 -425)"/><path class="cls-30" d="M803.34,604.53a.66.66,0,0,1,.76-.42A.6.6,0,0,1,803.34,604.53Z" transform="translate(-675 -425)"/><path class="cls-31" d="M841.93,570.69a13.84,13.84,0,0,0-3.34-.15,92.61,92.61,0,0,0-10.27.25c-.26.3-.73.15-1,.45a34.19,34.19,0,0,0-10,1.86c-2.47.74-4.92,1.53-7.3,2.48-2.71,1.09-5.33,2.42-8,3.58-3.23,1.4-6.48,2.73-9.73,4.08a5.37,5.37,0,0,1-.92.21,1,1,0,0,1-.32-1.08A21.1,21.1,0,0,1,793.7,575a22.08,22.08,0,0,1,6.2-6,25.41,25.41,0,0,1,8.61-3.37,23.39,23.39,0,0,1,5.58-.39,2,2,0,0,0,2.07-1.31,9.75,9.75,0,0,1,2.63-3.5,19.75,19.75,0,0,1,7.48-4.53,18.94,18.94,0,0,1,7.16-1.1,42.93,42.93,0,0,1,7.16.33,1.74,1.74,0,0,1,1.37.82Z" transform="translate(-675 -425)"/><path class="cls-32" d="M842,555.93a11.26,11.26,0,0,0-3.31-.41c-3.24-.06-6.52-.51-9.72.24a18.68,18.68,0,0,0-10.49,5.9,24.36,24.36,0,0,0-2.26,3.42,1.23,1.23,0,0,1-1.25.67c-.64,0-1.28,0-1.92,0A23.65,23.65,0,0,0,799.52,570c-3.52,2.5-6.17,5.57-7.26,9.79-.31,1.22-.56,2.46-.89,3.68a15.33,15.33,0,0,1-4.45,1.57c-2.71.79-5.5,1.31-8.27,1.92a9.09,9.09,0,0,1-1.17.12,13.63,13.63,0,0,1,5.08-7.36,10,10,0,0,1,4.05-1.68,1,1,0,0,0,.94-.86c.79-3.15,1.6-6.34,3.69-8.92a18.45,18.45,0,0,1,7-5.75,37.31,37.31,0,0,1,5.92-2.2,23.94,23.94,0,0,1,6.86-.53,1.75,1.75,0,0,0,1.95-1.28A13.13,13.13,0,0,1,818,552.8a21.46,21.46,0,0,1,3.86-2.08,20.74,20.74,0,0,1,8.62-1.32,54,54,0,0,1,7.51.5c1,.19,1.93.36,2.89.54a1.17,1.17,0,0,1,1.12,1.29C842,553.13,842,554.53,842,555.93Z" transform="translate(-675 -425)"/><path class="cls-33" d="M716.27,582.53a.69.69,0,0,1-.74.46l-7,.24a4.14,4.14,0,0,1-.91-.21c.42-1-.4-1.69-1-2.26a16.45,16.45,0,0,0-5.95-4.25,16.16,16.16,0,0,0-3.41-1,2.14,2.14,0,0,1-1.93-1.72,29.1,29.1,0,0,0-2.26-6.13,7.52,7.52,0,0,0-1.35-2.08,5.67,5.67,0,0,1-1.36-2.71c0-2.67,0-5.35,0-8,0-.87.12-1.11,1-.5a25.75,25.75,0,0,1,6.36,6.8,25.26,25.26,0,0,1,2.89,7.51c.14.51.32.82.93.89A15.36,15.36,0,0,1,712.35,576a20.54,20.54,0,0,1,3.28,5.73A3.39,3.39,0,0,0,716.27,582.53Z" transform="translate(-675 -425)"/><path class="cls-17" d="M690.42,562.91a27.92,27.92,0,0,1,4.84,8.08,11.62,11.62,0,0,1,.57,2.43,1.91,1.91,0,0,0,1.88,1.66,14,14,0,0,1,7,3.16,22.19,22.19,0,0,1,3.3,3.2c.29.35.58.7.47,1.16s-.55.36-.89.42c-2.5.25-4.88-.53-7.33-.75-2.8-.25-5.55-1-8.36-1.11a3,3,0,0,1-1.54-.6Q690.42,571.74,690.42,562.91Z" transform="translate(-675 -425)"/><path class="cls-34" d="M765,591.4c-.23.58-.74.45-1.19.45,0-.15,0-.31,0-.46Z" transform="translate(-675 -425)"/><path class="cls-35" d="M827.33,571.24c.18-.48.58-.47,1-.45C828.14,571.27,827.74,571.26,827.33,571.24Z" transform="translate(-675 -425)"/></svg>