<svg id="Calque_1" data-name="Calque 1" xmlns="http://www.w3.org/2000/svg" viewBox="0 0 570.48 230.16"><defs><style>.cls-1{fill:#f5a4a4;}.cls-2{fill:#fefefe;}.cls-3{fill:#f2888a;}.cls-4{fill:#7f4547;}.cls-5{fill:#8c4c4e;}.cls-6{fill:#ac5d60;}.cls-7{fill:#fedadc;}.cls-8{fill:#f7d7d8;}.cls-9{fill:#3d2122;}.cls-10{fill:#edbfcc;}.cls-11{fill:#fef0de;}.cls-12{fill:#bd5e75;}.cls-13{fill:#feefde;}.cls-14{fill:#804547;}.cls-15{fill:#9f5659;}.cls-16{fill:#be627a;}.cls-17{fill:#bf637b;}.cls-18{fill:#964a5c;}.cls-19{fill:#ba5870;}.cls-20{fill:#d2c5b7;}.cls-21{fill:#724144;}.cls-22{fill:#de8a93;}.cls-23{fill:#b97a7a;}.cls-24{fill:#563333;}.cls-25{fill:#f6bbbb;}.cls-26{fill:#fbd7cb;}.cls-27{fill:#885454;}.cls-28{fill:#f9c7bf;}.cls-29{fill:#f6b6b6;}.cls-30{fill:#a36a6a;}.cls-31{fill:#c99798;}.cls-32{fill:#b67878;}.cls-33{fill:#f9bbbc;}.cls-34{fill:#9a4a5d;}.cls-35{fill:#b47e7f;}.cls-36{fill:#f8babb;}.cls-37{fill:#fad3c8;}.cls-38{fill:#f9c9c0;}.cls-39{fill:#f6bebf;}.cls-40{fill:#da828d;}.cls-41{fill:#e18b93;}.cls-42{fill:#f6c1c1;}.cls-43{fill:#e2bcbd;}.cls-44{fill:#bf7c7c;}.cls-45{fill:#fdbbbd;}.cls-46{fill:#b56567;}.cls-47{fill:#a97673;}.cls-48{fill:#a85c5e;}.cls-49{fill:#bf696b;}.cls-50{fill:#cc7273;}.cls-51{fill:#d37678;}.cls-52{fill:#b06264;}.cls-53{fill:#f09bb0;}.cls-54{fill:#f3a1a8;}.cls-55{fill:#f4a2a9;}.cls-56{fill:#b78688;}.cls-57{fill:#b66f7a;}.cls-58{fill:#ab767c;}.cls-59{fill:#d5aaac;}.cls-60{fill:#c89b9c;}.cls-61{fill:#af7d7f;}.cls-62{fill:#c47a88;}.cls-63{fill:#a6626b;}.cls-64{fill:#c17784;}.cls-65{fill:#b76f7b;}.cls-66{fill:#a67076;}.cls-67{fill:#ae787f;}.cls-68{fill:#955053;}.cls-69{fill:#b9898b;}.cls-70{fill:#ddb0b2;}.cls-71{fill:#a86d72;}.cls-72{fill:#bc848c;}.cls-73{fill:#d6a8aa;}.cls-74{fill:#bf647b;}.cls-75{fill:#f5d4d5;}.cls-76{fill:#5b3233;}.cls-77{fill:#5c3334;}.cls-78{fill:#5f3536;}.cls-79{fill:#613436;}.cls-80{fill:#d29a9c;}.cls-81{fill:#c38284;}.cls-82{fill:#dfb0b3;}.cls-83{fill:#dfb1b2;}.cls-84{fill:#c98b8d;}.cls-85{fill:#e5c5c6;}.cls-86{fill:#e6bbbd;}.cls-87{fill:#c07d7f;}.cls-88{fill:#f5d5d6;}.cls-89{fill:#c2b0a4;}.cls-90{fill:#624946;}.cls-91{fill:#be6279;}.cls-92{fill:#977172;}.cls-93{fill:#ddbbbc;}.cls-94{fill:#704044;}.cls-95{fill:#a68283;}.cls-96{fill:#d9b7b8;}.cls-97{fill:#8d6768;}.cls-98{fill:#e2c1c2;}.cls-99{fill:#e7b8be;}.cls-100{fill:#d6b4b6;}.cls-101{fill:#f6d9d6;}.cls-102{fill:#efaabc;}.cls-103{fill:#eeadbe;}.cls-104{fill:#b15c70;}.cls-105{fill:#231519;}.cls-106{fill:#d08b96;}.cls-107{fill:#814648;}.cls-108{fill:#140e10;}.cls-109{fill:#191113;}.cls-110{fill:#b0586d;}.cls-111{fill:#c36e7f;}.cls-112{fill:#bf7683;}.cls-113{fill:#79404e;}.cls-114{fill:#67383b;}.cls-115{fill:#613336;}.cls-116{fill:#f7a6a6;}.cls-117{fill:#dd8890;}.cls-118{fill:#db8f97;}.cls-119{fill:#f7bcc7;}.cls-120{fill:#79434a;}.cls-121{fill:#f5a5a5;}.cls-122{fill:#e8c0c3;}.cls-123{fill:#eec8cb;}.cls-124{fill:#67373b;}.cls-125{fill:#ce8192;}.cls-126{fill:#d58c99;}.cls-127{fill:#f9c4c4;}.cls-128{fill:#0e0c0c;}.cls-129{fill:#8c4855;}.cls-130{fill:#894653;}.cls-131{fill:#ab6a6d;}.cls-132{fill:#a36667;}.cls-133{fill:#5a3132;}</style></defs><path class="cls-1" d="M1245.45,425.3q0,114.36,0,228.72c0,1-.28,1.14-1.19,1.14q-284.52,0-569,0a2.62,2.62,0,0,1-.11-1.3q0-113.6,0-227.19c0-1.63-.18-1.47,1.47-1.47h567.53A2.62,2.62,0,0,1,1245.45,425.3Z" transform="translate(-675 -425)"/><path class="cls-2" d="M1245.45,425.3H677.11c-1.85,0-1.85,0-1.85,1.82v228c-.07,0-.25.12-.24-.12s0-.64,0-1q0-114,0-227.92c0-.9.2-1.1,1.1-1.1l568.27,0C1244.72,425.08,1245.18,424.8,1245.45,425.3Z" transform="translate(-675 -425)"/><path class="cls-3" d="M735.52,509.92c2.8-1.61,5.72-3,8.51-4.6,2.44-1.4,5-2.62,7.49-3.81s5.05-2.39,7.64-3.46c2.38-1,4.88-1.57,7.21-2.65a5.38,5.38,0,0,1,1.28-.25c2.29-.39,4.5-1.2,6.89-1.09a16.42,16.42,0,0,1,6,1.57c2.36,1.07,4.46,2.56,6.71,3.79a13.4,13.4,0,0,1,2,1.59,1.14,1.14,0,0,1,1.2.34c3.5,2.84,7,5.71,10.36,8.7,1.91,1.69,3.68,3.54,5.68,5.13,3.24,3,6.48,6,9.82,8.94a35.58,35.58,0,0,1,4.07,3.69c.8,1,2.14,1.28,2.74,2.46a.68.68,0,0,1-.26.63c-1.81,1.26-2.66,3.3-4,5a7,7,0,0,1-2.12,1.31q-5.41,3.27-10.88,6.47a5.83,5.83,0,0,1-3,.66c-4-.06-8,.7-12,1a1.62,1.62,0,0,0-1.18.35,61,61,0,0,0-9.06,3.31,2.57,2.57,0,0,1-1.39.29,6.22,6.22,0,0,1-2.06-.9,81.6,81.6,0,0,0-12.38-5.8,1.47,1.47,0,0,0-.93-.39,27.61,27.61,0,0,1-4.61-1.51c-.28-.2-.54-.44-.93-.37a19.69,19.69,0,0,1-3.8-.84,1.74,1.74,0,0,0-1.16-.38,9.28,9.28,0,0,1-2.9-.57c-.32-.15-.59-.42-1-.39a3,3,0,0,0-.79.07c-1.68,0-3.34-.15-5-.26s-3.17-.15-4.77-.17a2.58,2.58,0,0,1-1.71-.38.64.64,0,0,1-.1-.64,2.75,2.75,0,0,0,.58-1.89c0-3.23,0-6.47,0-9.7a4.67,4.67,0,0,1,.19-1.78c.38-.69,1.06-.6,1.68-.63a34.67,34.67,0,0,0,4-.13,3.86,3.86,0,0,0-1.43-1.34c-2.25-1.39-4.13-3.26-6.31-4.74a1.73,1.73,0,0,1-.64-.84,23.07,23.07,0,0,1-.12-4.7A1.08,1.08,0,0,1,735.52,509.92Z" transform="translate(-675 -425)"/><path class="cls-4" d="M779.14,549c2.51-1,5-2,7.53-2.92a12.74,12.74,0,0,1,3-.69c.27-.29.72-.15,1-.43,1.82-.25,3.69-.24,5.46-.6,2.73-.55,5.48-.21,8.2-.59a8.45,8.45,0,0,0,3.36-1.68c2-1.27,4.21-2.28,6.16-3.68,1.53-1.09,3.34-1.7,4.83-2.86a17.16,17.16,0,0,1,7.33-3c.41,0,.68-.3,1-.43a22.39,22.39,0,0,1,5.22-.63c5-.15,10,.19,15,.24a15.28,15.28,0,0,0,5.64-.87,37.13,37.13,0,0,0,9.24-4.45,93.31,93.31,0,0,1,16.43-9.79,56.72,56.72,0,0,1,10.57-3.8c1.08-.25,1.43-.06,1.44.9v23a.66.66,0,0,1-.13.45l-.21.07a.38.38,0,0,1-.31.08,1.75,1.75,0,0,0-1.1-.21,2.75,2.75,0,0,1-2.63-1,9.81,9.81,0,0,0-5.63-2.94,3,3,0,0,0-3.09,0,4.59,4.59,0,0,1-4.39-.26,11.49,11.49,0,0,0-7.74-1.07,1,1,0,0,0-.92.35,15.21,15.21,0,0,0-3.92,2.88,12.4,12.4,0,0,0-2.66,4.73,5.32,5.32,0,0,0-.55,1,1,1,0,0,1-.24.22,4,4,0,0,0-1.2.53c-.85.36-1.76.48-2.61.84a8.74,8.74,0,0,0-4.64,4.75,5.33,5.33,0,0,1-1.19,2c-1.69.21-3.41-.11-5.1.22a1.11,1.11,0,0,0-1,.26,10.32,10.32,0,0,0-5.46,4.24c-.33.55-.55,1.14-.83,1.72-.16.28-.39.52-.56.8a.86.86,0,0,1-.26.2,3.7,3.7,0,0,0-1.19.51c-1.34.24-2.42,1.17-3.75,1.42a1.56,1.56,0,0,1-1.1-.38,13.4,13.4,0,0,0-4.42-2.25,1.34,1.34,0,0,0-1-.34c-.16,0,0,0-.12,0-3,.45-5.17-1.38-7.52-2.73-.31-.19-.58-.45-1-.34-.89,0-1.77,0-2.65,0a1.24,1.24,0,0,0-1.15.28,12,12,0,0,0-5.79,3.32c-.89,1-1.82.29-2.69-.18a1.44,1.44,0,0,0-2,0,10,10,0,0,0-5.82,3.71c-.28.35-.66.72-1.1.63-1.75-.33-3.38.26-5,.54a102.32,102.32,0,0,1-11.35,0c-1.37-.2-2.2-1.45-3.49-1.79a1.34,1.34,0,0,0-1.18-.31,24.64,24.64,0,0,1-2.85,0,2.06,2.06,0,0,1-2-1.36c.09-.9.82-1.28,1.43-1.75a11,11,0,0,1,1.59-1.22,46.76,46.76,0,0,1,6.33-4.4A6.25,6.25,0,0,1,779.14,549Z" transform="translate(-675 -425)"/><path class="cls-5" d="M779.14,549c-.75.77-1.83.91-2.7,1.46a62.38,62.38,0,0,0-6.16,4.31,28.4,28.4,0,0,0-3.06,0c-2.18,0-4.36-.1-6.53-.18a23,23,0,0,0-5.56-.09c-2.53.08-5-.14-7.58-.15-.48-.12-.66-.55-.91-.9a6.15,6.15,0,0,0-3.79-2.74,4.34,4.34,0,0,1-2.41-1.44,6.43,6.43,0,0,0-1.89-1.46,1,1,0,0,0-.94-.31,8.88,8.88,0,0,1-4.4-.77,6.85,6.85,0,0,0-2.08-.44,1.31,1.31,0,0,0-1.15.31,11.16,11.16,0,0,1-1.7.53c-1.65.11-3.2,0-4.52-1.26a8,8,0,0,0-3.4-2.14,8.19,8.19,0,0,0-1-.59,10.71,10.71,0,0,1-1.2-2,8.6,8.6,0,0,0-4-3.61,2.23,2.23,0,0,0-.86-.42,1,1,0,0,1-.35-.34l0-14.07c.85-.51,1.47.24,2.19.41,1.92,1,3.77,2.05,5.59,3.19a68.38,68.38,0,0,1,6.91,5.3c2.58,2.14,5.17,4.26,8.57,5,.32.23.66.43,1,.68,3.91,0,7.81.21,11.7.52a1.2,1.2,0,0,0,.88.22.82.82,0,0,1,.58.21l3.1.53c.27.28.73.14,1,.43l4,.76c.22.21.55.22.76.43L764,541.8c.21.21.54.22.75.45a42.92,42.92,0,0,1,9.31,4C775.78,547.1,777.43,548.08,779.14,549Z" transform="translate(-675 -425)"/><path class="cls-6" d="M890.42,537.18q0-11.49,0-23c0-1.3-.07-1.26-1.37-.85s-2.67.69-4,1.13a87.89,87.89,0,0,0-10.69,4.73,72.46,72.46,0,0,0-7.76,4.66c-2.24,1.47-4.4,3.07-6.68,4.49a34.65,34.65,0,0,1-6.61,2.86c-3.81,1.39-7.73.9-11.66.8-4.65-.12-9.33-.41-14,.38a7.75,7.75,0,0,1-.84,0c-.19.23-.54.23-.73.46a24.38,24.38,0,0,0-6.35,2.24,2.26,2.26,0,0,1-1.12.37c.71-1.06,1.43-2.12,2.13-3.19a8.09,8.09,0,0,1,2.26-2,.76.76,0,0,1,.59-.53,7,7,0,0,0,3.76-3.13,7.79,7.79,0,0,1,4.17-3c1.53-.55,3-1.19,4.59-1.69a4.66,4.66,0,0,0,2.58-2.31,17.22,17.22,0,0,1,3-4.24,1.82,1.82,0,0,1,.68-.31,8.55,8.55,0,0,1,1.13-.05,3.89,3.89,0,0,1,1.43.26,1.1,1.1,0,0,1,.33.12,3.67,3.67,0,0,0,1.55.84,6.64,6.64,0,0,1,1.55.6,1.43,1.43,0,0,0,.88.35c2.12.36,3.43-.41,4.25-2.49a.42.42,0,0,1,.3-.13c.93.44,1.15-.5,1.67-.87,1.07-.86,2.12-1.76,3.62-1.78a3,3,0,0,1,.52,0c.34,0,.66.16,1,.18A5.42,5.42,0,0,0,862,512a1.33,1.33,0,0,0,.83-.44c.51-.38,1.18-.4,1.7-.77s.35-.81.4-1.26.09-1.06.87-.88a1,1,0,0,1,.21.29c.46,1.39.43,1.33,1.79.78a22,22,0,0,1,7.7-1.86c.24,0,.48,0,.72,0a2,2,0,0,0,1.16-.4,13.44,13.44,0,0,1,3.38-.57q.46,0,.93,0c.4,0,.67-.28,1-.42a26.47,26.47,0,0,1,3.76-.69c.78-.18,1.52-.45,2.3-.64a1.51,1.51,0,0,1,1.48.13c.6.18.44.69.45,1.1q0,14.91,0,29.82C890.67,536.54,890.82,536.94,890.42,537.18Z" transform="translate(-675 -425)"/><path class="cls-7" d="M890,537.19a.9.9,0,0,1,.22.06,1.24,1.24,0,0,1,.46,1.15,15.39,15.39,0,0,0,0,2.63c.2,1.36-.57,1.65-1.63,1.68a8.81,8.81,0,0,0-8,5.26,6.89,6.89,0,0,1-2,2.56,5.35,5.35,0,0,0-2.27,5.14,2.34,2.34,0,0,1-1.09,2.38,6.52,6.52,0,0,0-2.27,3.37c-.2.76-.49,1.49-.72,2.24-.1.34-.35.37-.64.43-.66.14-1.31.31-2,.46a.57.57,0,0,1-.56.12,2.7,2.7,0,0,1-.64-.31,10.45,10.45,0,0,1-3.8-3.63,13.72,13.72,0,0,0-9.19-6.3,3.08,3.08,0,0,1-1.68-.83c-.39-.4-.83-.75-1.2-1.17a7.7,7.7,0,0,0-4.36-2.54c-.53-.12-1.14-.19-1.19-.95,1.22-4.1,3.63-7,8.43-7.67.33-.35.91-.06,1.22-.46v0c.36-.22.18-.7.46-.95a11.15,11.15,0,0,1,6.74-7.91c.21-.22.54-.22.75-.45a11.23,11.23,0,0,1,8.91,1.46c1.26.83,2.36-.09,3.53-.06a5.4,5.4,0,0,1,3.16,0,8.67,8.67,0,0,1,6.17,3.36c.63.82,1.44.43,2.18.55C889.26,537.05,889.7,536.92,890,537.19Z" transform="translate(-675 -425)"/><path class="cls-8" d="M845.1,515.64c-.52.18-.92-.31-1.41-.27a1.05,1.05,0,0,0-1.26,0l-.47.27a2.38,2.38,0,0,1-1.85.05,19.31,19.31,0,0,0-9.1-.07c-3.11.65-6.15,1.65-9.34,1.92-1.07.08-2.07.61-3.18.48-4.17-.47-8.41-.67-12.28-2.6-2.76-2.33-5.39-4.81-8.11-7.2s-5.36-4.36-7.94-6.66a5.38,5.38,0,0,0-.92-.56c0-.21.11-.43.34-.43a18.56,18.56,0,0,1,4.48.1c1.49.39,3,.46,4.49.84a.44.44,0,0,0,.73,0c1.64-.74,3.07-1.93,4.9-2.23a10.48,10.48,0,0,1,7.46,1.47c2.42,1.45,5,2.89,8,2.92.48.46,1.21,0,1.7.45a18.25,18.25,0,0,1,5.57.51,15,15,0,0,1,4,1.34c1.08.72,2.22.24,3.34.08.2-.23.54-.24.75-.45,1.81-.23,3.67-.28,5.45-.6a32.27,32.27,0,0,1,4.59-.37l.13.1c.32.7-.06,1-.68,1.18-.37.1-.82.12-.62.72.38.48,1.25.14,1.46.88.17,2.42,0,4.84.07,7.26A1.15,1.15,0,0,1,845.1,515.64Z" transform="translate(-675 -425)"/><path class="cls-9" d="M875.06,573.64a5.84,5.84,0,0,1,2.43-4.22c1.85-1.5,3.56-3.17,5.4-4.69a19.56,19.56,0,0,1,3.2-2.13c1.47-.77,2.72-1.92,4.35-2.37a2.33,2.33,0,0,1,.11,1.17v38.33c0,1.36,0,1.36-1.35,1.36H873.38c-1.43,0-1.44,0-1.43-1.49,0-2.79-.06-5.58.13-8.37a2.23,2.23,0,0,1,.27-1.41c.17-.31.48-.56.45-1s0-.6,0-.9a1.07,1.07,0,0,1,.33-.65l.52-4.07c.38-.57.14-1.22.21-1.83a3.15,3.15,0,0,1,.19-1.55,30.52,30.52,0,0,1,.55-5.22C874.91,574.37,874.77,573.91,875.06,573.64Z" transform="translate(-675 -425)"/><path class="cls-8" d="M875.55,508.18a37.36,37.36,0,0,0-9.75,2.65c0-.8-.08-1.46-.12-2.13a.52.52,0,0,1-.08-.45c.12-.29.47-.39.55-.7.12-.49-.43-.5-.57-.8a.71.71,0,0,1,0-.65c.87-.48,1.63-1.14,2.47-1.68-.31-.46-.8-.26-1.2-.27-2.12,0-4.24,0-6.35,0-.38,0-.8.15-1.2-.26a51.75,51.75,0,0,1,4.51-3.77c0-.28.32-.32.44-.52,1.27-.14,1.91-1.46,3.13-1.7a1.55,1.55,0,0,1,.48-.32,2.73,2.73,0,0,0,.54-.27c.44-.14.62-.58,1-.82,1.42-.28,2.55-1.21,3.89-1.72a47,47,0,0,1,4.48-1.79c2.63-.71,5.14-1.85,7.88-2.13l1.19-.14c.32-.36.89-.08,1.22-.45,2.61,0,2.66,0,2.6,2.63s.13,5.47-.12,8.21a19.82,19.82,0,0,0,.13,3,1.05,1.05,0,0,1-.46,1.13,48,48,0,0,1-7.67,1.53.88.88,0,0,1-.62.21c-.37,0-.77-.07-1.08.22l-3.58.55a1.08,1.08,0,0,1-.78.19A1.3,1.3,0,0,0,875.55,508.18Z" transform="translate(-675 -425)"/><path class="cls-10" d="M847.43,548.94c.45.67,1.23.53,1.86.66,2.39.5,3.72,2.4,5.37,3.89a1.42,1.42,0,0,0,.88.51,13,13,0,0,1,8.2,4.3c1,1.07,2.35,2.3,2.25,4.14a.63.63,0,0,0,.58.66,10.58,10.58,0,0,1,3.48,1.45c-1.27,1-2.53,1.91-3.83,2.82a2.15,2.15,0,0,1-1.27.12c-1.77-.06-3.59-.4-5.22.65a2.21,2.21,0,0,1-.86-.95,5.82,5.82,0,0,0-6-3.82,2.55,2.55,0,0,1-2.71-1.22c-1.41-2.3-5.64-2.95-7.64-2.11a19.46,19.46,0,0,0-4.15,2.28,1.82,1.82,0,0,1-1,.41c-.4,0-.8,0-1.19,0a17.38,17.38,0,0,1-3.06,0,1.46,1.46,0,0,0-1.25.32,2,2,0,0,1-1.93,0,1.16,1.16,0,0,1-.21-.9,4.5,4.5,0,0,0-.52-3.11.77.77,0,0,1,0-.9,9.34,9.34,0,0,1,3.86-1.42c.33-.35.9-.06,1.21-.45h0c.25-.18.24-.52.47-.72a8.64,8.64,0,0,1,6.47-6.25c.23-.21.54-.24.79-.4A18.79,18.79,0,0,1,847.43,548.94Z" transform="translate(-675 -425)"/><path class="cls-11" d="M830,563.11l1.91-.25c.25-.31.73-.15,1-.47h3.34a.87.87,0,0,0,1.21,0c.4,0,.6-.34.89-.56,2.32-1.78,4.89-3,7.87-2.49a6,6,0,0,1,4.65,3.1,1,1,0,0,0,1.17.61,7.08,7.08,0,0,1,5.71,1.45,3.32,3.32,0,0,1,1.43,2.11,7.82,7.82,0,0,0,.59,1.53,18.23,18.23,0,0,0-3.85,2.8c-1,.85-2.06,1.75-3.57,1.25-.21-.21-.54-.22-.75-.44a11.7,11.7,0,0,0-5.55.06c-1,.3-1.8.82-2.83.39-.2-.23-.54-.23-.74-.45a11.19,11.19,0,0,0-6.45.41,1.74,1.74,0,0,1-1.29,0c-1.21-.65-2.49-.32-3.74-.38-.34.36-.9.08-1.23.45-1.13.17-2.27.3-3.39.5a20,20,0,0,1-7.86-.52c-.37-.58,0-1,.34-1.36a5.85,5.85,0,0,1,2-1.3,5.62,5.62,0,0,0,2.28-1.89,16.8,16.8,0,0,1,5.3-4.4A1.76,1.76,0,0,1,830,563.11Z" transform="translate(-675 -425)"/><path class="cls-7" d="M720.4,543.42c1.71.12,2.8,1.36,3.93,2.37a2.51,2.51,0,0,0,2,.86,12.41,12.41,0,0,1,1.91.16,4,4,0,0,1,2.65,1.44,3.27,3.27,0,0,0,3.41,1.09,7.7,7.7,0,0,1,6.3,1.11c2.74,2.06,4.5,4.62,3.94,8.25-.13.83,0,1.34.88,1.65a5.41,5.41,0,0,1,3.29,3.7,4.33,4.33,0,0,0,1.94,2.88c.22.11.5.37.36.67s-.45.25-.7.07a25,25,0,0,0-5.6-.22c-1.17.07-1.56-.88-2.2-1.45a11.24,11.24,0,0,0-7.13-3.07,2,2,0,0,1-1.8-1.19,12.88,12.88,0,0,0-9.16-6.07c-.26-.31-.72-.16-1-.45a1.23,1.23,0,0,1-.77-.83,27.37,27.37,0,0,0-3.67-7.28,10.86,10.86,0,0,0-5.55-4.83c-.59-.2-.54-.6-.54-1,0-1.52,0-3,0-4.56l.46.08c.22.21.54.23.76.43,1.79.32,2.86,1.65,3.86,2.95a7.09,7.09,0,0,1,1.41,2.79C719.64,543.32,720.13,543.15,720.4,543.42Z" transform="translate(-675 -425)"/><path class="cls-11" d="M873.15,587.31V588c-.3.32-.19.71-.22,1.08a.85.85,0,0,1-.22.61,2.49,2.49,0,0,0-.26,1.19,5.11,5.11,0,0,1-1.7,3.28c-2,2-3.94,4-6,6-.42.38-.83.76-1.47.6a1.32,1.32,0,0,1-1.27.46H842.13c-.33,0-.79.19-1-.23s.18-.7.38-1a27,27,0,0,1,5.88-6.42c3.89-2.71,8.08-3.74,12.67-1.82.95.4,1.26-.54,1.75-.9a14.91,14.91,0,0,1,7.7-3.07c.48-.46,1.21,0,1.7-.45Z" transform="translate(-675 -425)"/><path class="cls-10" d="M750.34,567.67c.09-.12.83,0,.27-.29-1.69-.81-1.9-2.39-2.47-3.87a4.6,4.6,0,0,0-3.41-3c-.83-.17-.84-.44-.67-1.1.86-3.3-.52-5.86-2.82-8-2-1.91-4.53-2.14-7.09-1.64-1.35.27-2.45.23-3.25-1-.66-1-1.9-1.12-2.63-2,.49-.4,1.12-.34,1.67-.53.29-.25.73-.14,1-.39a4.32,4.32,0,0,1,2.73.48c1.33.72,2.76.54,4.16.71.22.2.54.22.77.42a4.59,4.59,0,0,1,2.55,1.91c.73,1,2.07.76,3.06,1.29a6.37,6.37,0,0,1,3,3.24c.17.25.49.38.52.73a2.19,2.19,0,0,0,1.21,2,3,3,0,0,1,.89.94,1.68,1.68,0,0,0,1.18.73,5.17,5.17,0,0,1,3.76,2.83,2.52,2.52,0,0,0,1.77,1.42,2.78,2.78,0,0,1,1.65,1.1c.33.38.59.87,1.18.93s1.27,0,1.9,0a3,3,0,0,1,1.65.58c.81.68,1.78.24,2.67.38,2,.09,3.31,1.39,4.48,2.83a1.31,1.31,0,0,1,.28,1,10.94,10.94,0,0,1-2.52,2.23,50.89,50.89,0,0,0-9.64,0c-1.18.1-1.83-1-2.71-1.55a10.84,10.84,0,0,0-4.47-2C750.72,568.11,750.42,568.07,750.34,567.67Z" transform="translate(-675 -425)"/><path class="cls-11" d="M735.52,509.92l-.09,5.94a1.68,1.68,0,0,1-1.52.51H714.37a1.89,1.89,0,0,1-1.44-.46c0-3.15,0-6.3,0-9.45,0-.91.29-1.15,1.17-1.14q10.13,0,20.25,0c1,0,1.22.35,1.18,1.25C735.44,507.68,735.5,508.8,735.52,509.92Z" transform="translate(-675 -425)"/><path class="cls-7" d="M828.55,563.58a18.15,18.15,0,0,0-5.89,5.13c-.69.93-1.82,1-2.67,1.67-.66.48-1.45.82-1.51,1.8-.13-.1-.23-.26-.37-.29a21.26,21.26,0,0,0-4.7-1,10.61,10.61,0,0,0-4.91,1,7.31,7.31,0,0,1-5,.52,18.82,18.82,0,0,0-2.24-.2c-1.88-.26-2.42-2.07-3.61-3.13a3,3,0,0,1,1.27-2.34,9.51,9.51,0,0,1,5.3-2.55,1.76,1.76,0,0,1,1.07.05c1.32.71,2.17.08,3.12-.81,1.6-1.51,3.74-1.89,5.81-2.34a3.22,3.22,0,0,1,2.16.57,2.15,2.15,0,0,0,2.36,0c2.36-1.49,6.79-1.07,9.44,1.19C828.37,563,828.64,563.19,828.55,563.58Z" transform="translate(-675 -425)"/><path class="cls-10" d="M712.93,589.72c0-1.2,0-2.39,0-3.59,0-.72.26-.91,1-1a25.5,25.5,0,0,1,7.85.06,27.41,27.41,0,0,1,11.06,4.48,24.24,24.24,0,0,1,4.44,3.86,18.06,18.06,0,0,1,3.87,6.7c.11.4.26.94-.33.93-1.52,0-3.1.44-4.54-.42-.58-.25-.93-.91-1.66-.9-1.9-.6-3.55-1.76-5.38-2.52-2.12-.87-4.15-1.93-6.29-2.76a17,17,0,0,0-1.9-1c-2.49-1-4.88-2.22-7.35-3.27A2.2,2.2,0,0,1,712.93,589.72Z" transform="translate(-675 -425)"/><path class="cls-12" d="M712.93,515.92h20.82c.56,0,1.12,0,1.68-.06,1.7.78,3,2.18,4.48,3.23,1.3.89,2.52,1.89,3.78,2.82.31.23.6.51.54.87s-.59.3-.91.3c-1.75,0-3.51,0-5.27.07a2,2,0,0,1-1.57.41c-6.47,0-12.94,0-19.41,0-.68,0-1.33-.24-2-.26l-2.11-.7Z" transform="translate(-675 -425)"/><path class="cls-12" d="M739.32,505.12a5.77,5.77,0,0,1-2.61.18c-6.78-.4-13.57-.06-20.36-.19-1.1,0-2.5.5-3.22-.26s-.16-2.06-.2-3.13c0-.8,0-1.59,0-2.39.16-.33.32-.67.77-.68,4.89,0,9.79,0,14.68,0a2.82,2.82,0,0,0,1.52-.17c3.21,1.85,6.23,4,9.34,6A.47.47,0,0,1,739.32,505.12Z" transform="translate(-675 -425)"/><path class="cls-10" d="M797.82,569.08a3.8,3.8,0,0,1,2,2.06c.26.78,1.24.31,1.41,1.05-1.75.1-3.52-.17-5.24.41a2.13,2.13,0,0,1-1.16-.18c-1.53-.49-3-1.11-4.6-1.5a7.8,7.8,0,0,0-3.78,0,28.12,28.12,0,0,1-6.22,1.31c-.86,0-1.48-.59-2.29-.53-.49-1.36.39-2.05,1.32-2.72a3.83,3.83,0,0,1,1-.24,3,3,0,0,0,2.55-1.88,7.58,7.58,0,0,1,1.07-1.58,1.81,1.81,0,0,1,.65-.61c3-2.9,8.18-1.89,10.17.47a2.91,2.91,0,0,1,.57.76A6.22,6.22,0,0,0,797.82,569.08Z" transform="translate(-675 -425)"/><path class="cls-12" d="M723.24,481.62a3.89,3.89,0,0,0,2.08,2.42c2.27,1.32,4.69,2.4,6.88,3.85,1,.7,2.43.95,3.29,2.32H714.83c-.44-.52-.19-1.08,0-1.56.57-1.38,1-2.83,1.65-4.17.55-.78,1.74-.78,2.11-1.84.11-.32.37-.67.53-1a2.33,2.33,0,0,1,3.62-.72C723,481.09,723,481.44,723.24,481.62Z" transform="translate(-675 -425)"/><path class="cls-13" d="M713.92,490.73c5,0,9.91,0,14.86,0,1,0,1.24.33,1.21,1.25-.06,1.71,0,3.43,0,5.14,0,.85-.26,1.1-1.1,1.1-5,0-10,0-15,0C713.18,497,713.19,491.85,713.92,490.73Z" transform="translate(-675 -425)"/><path class="cls-14" d="M713,601v-8.12c.74-.48,1.41-.07,2,.25,4.59,2.35,9.21,4.62,13.82,6.91.39.19.82.34.92.84-.07.29-.3.25-.48.25H713.41A.65.65,0,0,1,713,601Z" transform="translate(-675 -425)"/><path class="cls-15" d="M713,601h16.78c-2.59-1.28-4.88-2.39-7.15-3.56-2.53-1.3-5.14-2.43-7.61-3.86a10.25,10.25,0,0,0-2-.7l0-3.12c2.39.59,4.46,1.92,6.68,2.9l1.51.65a7.41,7.41,0,0,0,2.34,1.31c3.12,1.58,6.33,3,9.42,4.58.55.29,1.13.83,1.87.39a1.37,1.37,0,0,1,1.48,1.19c-.13.56-.58.44-1,.44q-10.72,0-21.45,0C713.52,601.2,713.17,601.33,713,601Z" transform="translate(-675 -425)"/><path class="cls-14" d="M863.28,600.74a25.73,25.73,0,0,0,3.62-3.22,43.48,43.48,0,0,0,4.81-5.16c.35-.48.31-1.07.73-1.46,0,3.11,0,6.23-.08,9.34,0,.65.18.75.71.75h16.55c.63,0,.87-.27.82-.87,0-.16,0-.32,0-.48V560.23c.43.28.23.72.23,1.09q0,19.33,0,38.69c0,.9-.19,1.24-1.19,1.24-8.39-.06-16.78,0-25.17-.08C864,601.17,863.41,601.42,863.28,600.74Z" transform="translate(-675 -425)"/><path class="cls-16" d="M845.13,504.4c-.32-.34-.74-.23-1.13-.24a3.84,3.84,0,0,1-3.21-2.18c-.19-.44.08-.52.32-.57a5.27,5.27,0,0,1,1.19-.1q8.25,0,16.51,0c.44,0,1.11-.28,1.28.3s-.27,1-.73,1.4c-.28.22-.56.44-.83.67-.67,1-1.73.82-2.71.84a14.83,14.83,0,0,0-2,.25,1.12,1.12,0,0,1-.36-.05c-.59-.32-1.3-.08-1.89-.39-.69-1.06-1.54-1.14-2.1.12a.66.66,0,0,1-.33.12c-.61-.06-1.22-.06-1.83-.06h-.55A3.06,3.06,0,0,1,845.13,504.4Z" transform="translate(-675 -425)"/><path class="cls-7" d="M779.36,569.11a4.69,4.69,0,0,0-1.44,2.61h-1.19a12.42,12.42,0,0,0-4.76.51,4.53,4.53,0,0,1-3.14,0c-.2-.23-.54-.22-.74-.45l-.21,0a4,4,0,0,1,2.38-2.14,1.87,1.87,0,0,1,2-.47,4.73,4.73,0,0,0,3.32-.5,3.61,3.61,0,0,1,2.66-.27c.34.11.59.39.93.52A.68.68,0,0,1,779.36,569.11Z" transform="translate(-675 -425)"/><path class="cls-17" d="M868.06,504.42c-.5.92-1,1.82-2.29,1.66a1.22,1.22,0,0,1-.94.34,4.31,4.31,0,0,1-1.34-.09c-.45-.33-.9-.57-1.39-.07a1.8,1.8,0,0,1-1,.16c-.44,0-.82,0-.89.56-.12.2-.25.37-.52.34a.87.87,0,0,1-.31-.4c-.22-.74-1.16-.59-1.5-1.2a2.46,2.46,0,0,1-.38-.62c0-.3-.24-.63.17-.83a1.51,1.51,0,0,1,1.31.1Z" transform="translate(-675 -425)"/><path class="cls-18" d="M716.5,484.48c.25,0,.25.11.17.38-.51,1.82-1.51,3.47-1.84,5.35-.28,0-.56,0-.83.06-.85.15-1.17-.2-1.09-1a8,8,0,0,0,0-1.55,1.64,1.64,0,0,1,1.23-1.89A17,17,0,0,0,716.5,484.48Z" transform="translate(-675 -425)"/><path class="cls-19" d="M729.94,498.46c-.23.65-.8.41-1.23.41h-15.3a.33.33,0,0,1,0-.48Z" transform="translate(-675 -425)"/><path class="cls-20" d="M713.92,490.73c0,2.48,0,4.95,0,7.43-.7.09-1-.17-1-.92,0-1.87,0-3.73,0-5.6C712.9,490.88,713.22,490.64,713.92,490.73Z" transform="translate(-675 -425)"/><path class="cls-21" d="M845.13,504.4c.5-.41,1.08-.21,1.63-.25a1,1,0,0,1,.1,1.41,1,1,0,0,1-1.09.31c-.75-.14-.44-.83-.65-1.25l0,0Z" transform="translate(-675 -425)"/><path class="cls-22" d="M859,504.37l-1.43,0a3.5,3.5,0,0,1-2,.68.71.71,0,0,1,.06-.91,5.62,5.62,0,0,0,2.91-.49C858.51,504,858.83,504.15,859,504.37Z" transform="translate(-675 -425)"/><path class="cls-23" d="M874.07,579.86v1.64c-.09.21-.23.2-.4.1C873.72,581,873.3,580.3,874.07,579.86Z" transform="translate(-675 -425)"/><path class="cls-24" d="M873.68,581.6l.41-.1c-.07.6.39,1.32-.42,1.74Z" transform="translate(-675 -425)"/><path class="cls-25" d="M821.36,504.13c-.58-.11-1.31.38-1.7-.45C820.23,503.8,821,503.31,821.36,504.13Z" transform="translate(-675 -425)"/><path class="cls-26" d="M871.25,587.33c-.39.82-1.13.34-1.7.45C869.94,587,870.67,587.43,871.25,587.33Z" transform="translate(-675 -425)"/><path class="cls-27" d="M863.13,500.13c-.19.19-.37,0-.54,0s-.66-.05-.61-.41c.08-.52.49-.15.75-.16a1.43,1.43,0,0,1,.35.06A.41.41,0,0,1,863.13,500.13Z" transform="translate(-675 -425)"/><path class="cls-28" d="M829.73,572.2c.21-.68.78-.41,1.23-.45C830.74,572.43,830.18,572.15,829.73,572.2Z" transform="translate(-675 -425)"/><path class="cls-29" d="M888.05,490.26c-.21.69-.78.41-1.22.45C887,490,887.6,490.32,888.05,490.26Z" transform="translate(-675 -425)"/><path class="cls-30" d="M863.13,500.13l0-.52h1.18c0,.34-.12.49-.44.52Z" transform="translate(-675 -425)"/><path class="cls-31" d="M869.39,496.49a1.32,1.32,0,0,1-1,1,.2.2,0,0,1,0-.32C868.7,496.93,868.9,496.48,869.39,496.49Z" transform="translate(-675 -425)"/><path class="cls-32" d="M875.06,573.64c0,.4.1.83-.44,1C874.59,574.23,874.49,573.79,875.06,573.64Z" transform="translate(-675 -425)"/><path class="cls-33" d="M723.46,555.22c.4,0,.86-.13,1,.45C724.06,555.66,723.6,555.79,723.46,555.22Z" transform="translate(-675 -425)"/><path class="cls-34" d="M713.41,498.4v.48l-.44.45C713,499,712.64,498.41,713.41,498.4Z" transform="translate(-675 -425)"/><path class="cls-35" d="M868.36,497.15l0,.32c0,.18,0,.37-.25.44-.2-.23-.54-.22-.73-.46C867.61,497,868.06,497.31,868.36,497.15Z" transform="translate(-675 -425)"/><path class="cls-36" d="M768.09,571.75c.35,0,.67,0,.74.45C768.47,572.22,768.15,572.19,768.09,571.75Z" transform="translate(-675 -425)"/><path class="cls-37" d="M842.44,571.75c.35,0,.67,0,.74.45C842.82,572.24,842.52,572.18,842.44,571.75Z" transform="translate(-675 -425)"/><path class="cls-38" d="M851.56,571.75c.35,0,.67,0,.75.44C852,572.23,851.64,572.19,851.56,571.75Z" transform="translate(-675 -425)"/><path class="cls-39" d="M835,505.61c-.08.43-.39.47-.75.45C834.36,505.61,834.68,505.58,835,505.61Z" transform="translate(-675 -425)"/><path class="cls-40" d="M739.32,505.12c0-.24,0-.47,0-.7.2,0,.4,0,.45.27S739.56,505.07,739.32,505.12Z" transform="translate(-675 -425)"/><path class="cls-41" d="M723.24,481.62c-.44-.06-.5-.36-.48-.72C723.2,481,723.24,481.27,723.24,481.62Z" transform="translate(-675 -425)"/><path class="cls-42" d="M799.28,501.52c0,.18-.07.38-.3.41s-.37-.18-.43-.41Z" transform="translate(-675 -425)"/><path class="cls-43" d="M867.41,497.45c.38-.06.65,0,.73.46h-.75C867.4,497.75,867.4,497.6,867.41,497.45Z" transform="translate(-675 -425)"/><path class="cls-44" d="M864.87,498.35l-.34-.27c.08,0,.19-.13.24-.11a2.14,2.14,0,0,1,.32.28Z" transform="translate(-675 -425)"/><path class="cls-45" d="M806.21,515.43a3.3,3.3,0,0,1,1.76.31c2.31.94,4.8,1,7.19,1.43a10,10,0,0,0,3.85.35c2.7-.54,5.44-.75,8.12-1.49,3.65-1,7.38-1.81,11.27-1.19a26.14,26.14,0,0,0,3.56.81,17.14,17.14,0,0,0-2.58,3.75,6.21,6.21,0,0,1-4.08,3.37c-1.66.48-3.23,1.22-4.85,1.84a6.61,6.61,0,0,0-3.28,3,6.14,6.14,0,0,1-4.11,2.68,27.79,27.79,0,0,1-2.69-2.06q-3.45-3.22-7-6.31C810.9,519.86,808.55,517.65,806.21,515.43Z" transform="translate(-675 -425)"/><path class="cls-11" d="M715.07,523.32c.16-.23.41-.21.64-.21l22.34,0c.22,4.31,0,8.62.07,12.93,0,.74-.49.69-1,.74a.87.87,0,0,1-1-.05c-3.17-.43-5.53-2.32-7.88-4.27a78.24,78.24,0,0,0-9.7-7.19C717.44,524.62,716.19,524.08,715.07,523.32Z" transform="translate(-675 -425)"/><path class="cls-46" d="M754.44,539.12c-.4,0-.85.13-1-.43C753.85,538.67,754.29,538.57,754.44,539.12Z" transform="translate(-675 -425)"/><path class="cls-47" d="M736.18,536.77l1,.05c0,.13,0,.26,0,.39C736.79,537.2,736.33,537.34,736.18,536.77Z" transform="translate(-675 -425)"/><path class="cls-48" d="M790.66,544.92c-.15.57-.6.44-1,.43C789.82,544.8,790.25,544.9,790.66,544.92Z" transform="translate(-675 -425)"/><path class="cls-49" d="M764.75,542.25c-.35,0-.67,0-.75-.45C764.37,541.75,764.67,541.81,764.75,542.25Z" transform="translate(-675 -425)"/><path class="cls-50" d="M759.23,540.31c-.36.06-.66,0-.76-.43C758.83,539.85,759.15,539.87,759.23,540.31Z" transform="translate(-675 -425)"/><path class="cls-51" d="M750.35,538.16h-.71a.27.27,0,0,1,0-.43C750,537.69,750.27,537.72,750.35,538.16Z" transform="translate(-675 -425)"/><path class="cls-52" d="M749.6,537.73c0,.14,0,.29,0,.43-.35,0-.67,0-.75-.43Z" transform="translate(-675 -425)"/><path class="cls-53" d="M797.82,569.08c-1.18-.34-2.19-.65-2.47-2.22s-3.22-3.38-5.32-3.52a7.35,7.35,0,0,0-5.38,1.67c-.42-.48-.14-.94.15-1.28,1-1.21,1.76-2.75,3.44-3.26a6.67,6.67,0,0,1,4.63-.48c.37.13.62-.11.86-.44a8.79,8.79,0,0,1,6.24-3.92,2.3,2.3,0,0,1,2,0c1.39,1,2.3.31,3.33-.74a8.86,8.86,0,0,1,5-2.37c.27-.29.73-.15,1-.44a14.32,14.32,0,0,1,3.07,0,5.85,5.85,0,0,0,.79.4,4.75,4.75,0,0,1,3.25,2.07c.29.44.68.33,1.05.33a16.21,16.21,0,0,1,3.54.33c.23.18.55.2.76.42a9,9,0,0,1,4.42,2.09,4.67,4.67,0,0,0,1.05.52c.36,1,1.27,1.87,1,3.11-.12.57-.17,1.15-.25,1.73l-1.43.47a10,10,0,0,0-6.86-2.43,7.86,7.86,0,0,0-3.56,1.2.91.91,0,0,1-1.21,0c-2.2-1.58-4.39-.58-6.5.22a7.32,7.32,0,0,0-3,2.27.73.73,0,0,1-1,.23c-1.74-1.23-3.43-.26-5,.34a7.23,7.23,0,0,0-3.51,3.19A1.19,1.19,0,0,0,797.82,569.08Z" transform="translate(-675 -425)"/><path class="cls-53" d="M778.39,568.64a4.63,4.63,0,0,0-3,.48,3.71,3.71,0,0,1-3.28.37c-.67-.19-1.25.18-1.88.08A6.06,6.06,0,0,0,765.7,566c-.47-.38-1-.19-1.56-.24s-.93.11-1.33-.23l-1.43-.49a2.26,2.26,0,0,0-2.17,0c-.48.06-.69-.25-.92-.6a3,3,0,0,0-2.51-1.57c-.74,0-.86-.72-1.15-1.2-.9-1.5-1.88-2.87-3.87-2.86a1,1,0,0,1-1-.59c-.35-1.38-2.62-1.3-2.33-3.12a2.17,2.17,0,0,0,0-.36c1.78-1.19,3.54-.53,5.17.24a2.22,2.22,0,0,0,2.42.06,5.33,5.33,0,0,1,2.29-.55c-.63-.15-1.56.66-2.17-.39a33.06,33.06,0,0,1,5.54.13c.26.45.71.23,1.08.26a9.91,9.91,0,0,1,5,2.08.85.85,0,0,1,.39.58c.83,1.32,2.11,1.3,3.44,1.17a13.6,13.6,0,0,1,1.56,0c.27.29.73.14,1,.44a5.49,5.49,0,0,1,3.1,1.76c.29.21.72.27.86.61.51,1.19,1.48,1.29,2.61,1.38a5.55,5.55,0,0,1,4.44,3,22.89,22.89,0,0,1-1.61,2.68,3.27,3.27,0,0,1-3.19.93l-.22,0C778.94,568.86,778.6,568.85,778.39,568.64Z" transform="translate(-675 -425)"/><path class="cls-54" d="M784.16,565.5c-.75,0-1-.74-1.44-1.15a4.58,4.58,0,0,0-3.72-1.46,1.63,1.63,0,0,1-2-1.2c-.14-.48-.76-.61-.78-1.15l12-.07A29.51,29.51,0,0,0,785.8,563a4.29,4.29,0,0,0-1.15,2Z" transform="translate(-675 -425)"/><path class="cls-55" d="M767.16,557.13a21.28,21.28,0,0,0-4.27-2.13,6.24,6.24,0,0,0-2.1-.29c-.19,0-.43,0-.43-.26,0-.08.23-.16.36-.24l8.79,0c.35,0,.75,0,.77.49Z" transform="translate(-675 -425)"/><path class="cls-56" d="M880.62,532.87h-3.16A2.77,2.77,0,0,1,880.62,532.87Z" transform="translate(-675 -425)"/><path class="cls-57" d="M801.94,555.65l-2,0A1.19,1.19,0,0,1,801.94,555.65Z" transform="translate(-675 -425)"/><path class="cls-58" d="M834.3,556.4c-.18.75-.77.41-1.21.45C833.3,556.19,833.87,556.47,834.3,556.4Z" transform="translate(-675 -425)"/><path class="cls-59" d="M857.08,540.81c-.19.72-.76.45-1.22.46C856.08,540.63,856.65,540.89,857.08,540.81Z" transform="translate(-675 -425)"/><path class="cls-60" d="M890,537.19c-.4,0-.85.14-1-.41C889.38,536.74,889.83,536.59,890,537.19Z" transform="translate(-675 -425)"/><path class="cls-61" d="M857.53,539.84c0,.41.19.88-.46.95C857.13,540.42,857,540,857.53,539.84Z" transform="translate(-675 -425)"/><path class="cls-62" d="M773.15,558.78c-.4,0-.84.11-1-.44C772.57,558.29,773,558.24,773.15,558.78Z" transform="translate(-675 -425)"/><path class="cls-63" d="M811.3,552.1c-.16.54-.6.45-1,.44C810.45,552,810.89,552.09,811.3,552.1Z" transform="translate(-675 -425)"/><path class="cls-64" d="M815.16,552.51c-.37.08-.69,0-.79-.4C814.72,552.08,815.06,552.06,815.16,552.51Z" transform="translate(-675 -425)"/><path class="cls-65" d="M823.76,555.66c-.35,0-.67,0-.76-.42C823.37,555.16,823.67,555.23,823.76,555.66Z" transform="translate(-675 -425)"/><path class="cls-66" d="M834.77,555.67c0,.36,0,.69-.47.72C834.29,556,834.35,555.74,834.77,555.67Z" transform="translate(-675 -425)"/><path class="cls-67" d="M842,549c-.09.47-.45.42-.79.4C841.34,549,841.65,548.93,842,549Z" transform="translate(-675 -425)"/><path class="cls-68" d="M826.14,532.9c.06-.44.38-.48.73-.46C826.81,532.88,826.49,532.92,826.14,532.9Z" transform="translate(-675 -425)"/><path class="cls-69" d="M865,531.48a.55.55,0,0,1-.75.45C864.34,531.49,864.66,531.46,865,531.48Z" transform="translate(-675 -425)"/><path class="cls-55" d="M755.18,554.08c1.25.41,2.58-.07,4,.33-.48.43-.93.28-1.32.3a5.56,5.56,0,0,0-2.73.74,2.15,2.15,0,0,1-2.56-.06c-1.3-.73-2.82-1.69-4.51-.72a1.42,1.42,0,0,1-.59.05l-.21-.78Z" transform="translate(-675 -425)"/><path class="cls-70" d="M720.4,543.42c-.41,0-.89.18-1-.48C719.78,543,720.28,542.85,720.4,543.42Z" transform="translate(-675 -425)"/><path class="cls-71" d="M731,545.89c-.19.52-.61.44-1,.39C730.11,545.7,730.56,545.86,731,545.89Z" transform="translate(-675 -425)"/><path class="cls-72" d="M738.62,547.5c-.37.06-.67,0-.77-.42C738.2,547,738.53,547.05,738.62,547.5Z" transform="translate(-675 -425)"/><path class="cls-73" d="M714.15,537.2c-.35,0-.68,0-.76-.43C713.76,536.7,714.07,536.75,714.15,537.2Z" transform="translate(-675 -425)"/><path class="cls-8" d="M853.79,514.69c-.12,2.26-2.27,3.6-4.61,2.86-.21-.22-.54-.23-.76-.44l-1.63-.5a1.88,1.88,0,0,1-.5-1.41c0-2.23,0-4.45,0-6.67a2,2,0,0,1,.39-1.34,1.81,1.81,0,0,1,1.22-.4c1.55,0,3.1,0,4.65,0,1.15,0,1.49.4,1.51,1.53,0,1.74,0,3.49,0,5.23A1.63,1.63,0,0,1,853.79,514.69Z" transform="translate(-675 -425)"/><path class="cls-74" d="M853.79,514.69c0-2.11-.07-4.21,0-6.32,0-.85-.16-1.22-1.11-1.18-1.94.09-3.89.07-5.84.1-.82-.06-1,.42-1,1.12,0,1.87,0,3.74,0,5.61,0,.58.09,1.22-.51,1.63h-.18c0-2.79,0-5.58,0-8.37-.42-.53-1.25.1-1.61-.57s-.34-1.29.7-1.17c.72.09,1-.22,1-.91.17.6.4,1.15,1.19.92s.39-.89.45-1.39h.5l.2.22a2.63,2.63,0,0,1,.18.54.63.63,0,0,0,.16.23,3.62,3.62,0,0,0,1.43.05.69.69,0,0,1,.3.14c.72.82,1,.85,1.8.12a.75.75,0,0,1,.26-.21.88.88,0,0,1,.33-.06,4.64,4.64,0,0,0,1.62,0,1.66,1.66,0,0,1,.32,0c.59.12,1.19,0,1.78.1a1.1,1.1,0,0,0,.36,0c.85,0,1.93-.4,2.1,1a.9.9,0,0,1-.39.67c-.59.28-1.32,0-1.84.55a1.72,1.72,0,0,1-.39.1c-.84.11-1.06.63-1.05,1.42,0,1.38,0,2.77,0,4.15,0,.54.05,1.13-.5,1.5h-.13Z" transform="translate(-675 -425)"/><path class="cls-8" d="M855.68,507.27a.68.68,0,0,0,.2,0c.48-.46,1.21,0,1.68-.47l.29-.44c.15-.21,0-.52.21-.7.49.07.81.56,1.38.52.36,0,.35.35.29.64s-.39.31-.24.6c.66.45.59,1.13.59,1.79,0,.47,0,.93,0,1.4a1.86,1.86,0,0,1-.14.9c-.15.35-.49.53-.72.81-1.47-.06-2.35,1.15-3.57,1.65-.09-.13,0,.06-.09-.07C854.93,512.79,855,508.34,855.68,507.27Z" transform="translate(-675 -425)"/><path class="cls-75" d="M864.73,511.33l-1.87.51c-.2.22-.55.21-.73.46a1.75,1.75,0,0,1-1.39.23.57.57,0,0,1-.17-.41c0-1.16,0-2.32,0-3.47,0-.9.47-1.38,1.36-1.26s2-.4,2.91.28A6.26,6.26,0,0,1,864.73,511.33Z" transform="translate(-675 -425)"/><path class="cls-76" d="M845.28,515.65q0-3.94.07-7.87c0-.34-.1-.79.37-.9s.89-.14,1.1.41l0,9.32A1.58,1.58,0,0,1,845.28,515.65Z" transform="translate(-675 -425)"/><path class="cls-77" d="M855.68,507.27V514c-.06.77-.77,1.16-1.23,1.46-.73.46-.32-.48-.53-.72,0-2,0-3.91,0-5.86C854,507.14,854,507.14,855.68,507.27Z" transform="translate(-675 -425)"/><path class="cls-78" d="M860.74,512.29v.24c-.37,0-.74.1-1-.23a.59.59,0,0,1,0-.73l.08-1a13.54,13.54,0,0,0,.08-2.38c0-.31.06-.58.42-.6s.55.24.54.61C860.77,509.58,860.89,510.94,860.74,512.29Z" transform="translate(-675 -425)"/><path class="cls-79" d="M864.73,511.33c0-1.19,0-2.38,0-3.57a.69.69,0,0,1,1-.11.46.46,0,0,1,.07.58l-.09.47c-.61.19-.37.7-.39,1.08C865.26,510.36,865.32,511,864.73,511.33Z" transform="translate(-675 -425)"/><path class="cls-80" d="M842.43,515.38c.41-.7.83-.67,1.26,0Z" transform="translate(-675 -425)"/><path class="cls-81" d="M876.33,507.79h.92c-.15.56-.6.41-1,.41C876.14,508,876.13,507.9,876.33,507.79Z" transform="translate(-675 -425)"/><path class="cls-82" d="M880.83,507.24c.14-.56.59-.43,1-.44.12.16.13.31-.06.42Z" transform="translate(-675 -425)"/><path class="cls-83" d="M848.42,517.11c.36,0,.68,0,.76.44C848.81,517.61,848.51,517.54,848.42,517.11Z" transform="translate(-675 -425)"/><path class="cls-84" d="M862.13,512.3c.08-.41.34-.53.73-.46C862.78,512.26,862.47,512.31,862.13,512.3Z" transform="translate(-675 -425)"/><path class="cls-85" d="M859.69,511.57c0,.24,0,.48,0,.73h-.46C859.25,512,859.26,511.64,859.69,511.57Z" transform="translate(-675 -425)"/><path class="cls-86" d="M876.33,507.79c0,.14-.05.27-.07.41l-.71,0C875.64,507.73,876,507.73,876.33,507.79Z" transform="translate(-675 -425)"/><path class="cls-87" d="M881.75,507.22l.06-.42h.72C882.43,507.27,882.11,507.28,881.75,507.22Z" transform="translate(-675 -425)"/><path class="cls-88" d="M843.45,506.7c.47.37,1.31-.29,1.61.57C844.51,507.1,843.7,507.7,843.45,506.7Z" transform="translate(-675 -425)"/><path class="cls-89" d="M872.71,589c0-.41-.13-.84.43-1l0,.92C873,589.14,872.88,589.13,872.71,589Z" transform="translate(-675 -425)"/><path class="cls-90" d="M872.71,589l.41-.08c.06.36,0,.69-.42.77Z" transform="translate(-675 -425)"/><path class="cls-91" d="M865.71,507.75h-1c-.91,0-1.82.06-2.73,0s-1.11.26-1.11,1.09a16.31,16.31,0,0,1-.16,3.42c0-1.23,0-2.45,0-3.68,0-.3,0-.74-.37-.74s-.35.45-.39.74c-.1.66.12,1.35-.18,2a4.31,4.31,0,0,1,0-.71,2.38,2.38,0,0,0-.92-2.61.63.63,0,0,1,.92,0l.27-.5a1.14,1.14,0,0,1,.91-.33,2.76,2.76,0,0,1,1.1.11,1,1,0,0,0,1.48,0,4,4,0,0,1,1.33-.1,1.23,1.23,0,0,1,.94.35c.38.07.88-.23,1.12.25s-.27.48-.43.7A.51.51,0,0,1,865.71,507.75Z" transform="translate(-675 -425)"/><path class="cls-92" d="M866,500.56c-.09.88-.56,1-1.28.62l1.31-1A.39.39,0,0,1,866,500.56Z" transform="translate(-675 -425)"/><path class="cls-93" d="M866,500.56l0-.38a2.48,2.48,0,0,1,.37-.47c.21-.15.51-.17.62.07s-.11.42-.35.51Z" transform="translate(-675 -425)"/><path class="cls-94" d="M865.75,506.78h-1a.53.53,0,0,1,0-.7h1C865.76,506.31,865.75,506.55,865.75,506.78Z" transform="translate(-675 -425)"/><path class="cls-95" d="M871,501l-1,.24c0-.71.48-.86,1-.9A.44.44,0,0,1,871,501Z" transform="translate(-675 -425)"/><path class="cls-96" d="M871.47,500a.58.58,0,0,1,1-.29c.27.24-.05.46-.34.53C871.92,500.17,871.6,500.36,871.47,500Z" transform="translate(-675 -425)"/><path class="cls-97" d="M871.47,500c.23,0,.51,0,.67.24a.25.25,0,0,0-.17.06c-.36.19-.11.77-.57.89L871,501v-.66Z" transform="translate(-675 -425)"/><path class="cls-98" d="M871.4,501.23c.2-.3-.13-.92.57-.89C871.93,500.73,872.07,501.24,871.4,501.23Z" transform="translate(-675 -425)"/><path class="cls-99" d="M865.71,507.75l.73,0c0,.44-.33.5-.67.5Z" transform="translate(-675 -425)"/><path class="cls-100" d="M864,502c0-.18-.11-.29-.08-.35s.15-.11.24-.17.08.15.07.2A1.54,1.54,0,0,1,864,502Z" transform="translate(-675 -425)"/><path class="cls-101" d="M837.42,562.39c-.4.74-.8.72-1.21,0Z" transform="translate(-675 -425)"/><path class="cls-101" d="M832.87,562.39c-.12.59-.59.45-1,.47C832,562.28,832.48,562.41,832.87,562.39Z" transform="translate(-675 -425)"/><path class="cls-102" d="M762.81,565.51h2c.39,0,.81,0,.92.48h-2C763.34,566,762.92,566,762.81,565.51Z" transform="translate(-675 -425)"/><path class="cls-103" d="M759.21,565a1.34,1.34,0,0,1,2.17,0Z" transform="translate(-675 -425)"/><path class="cls-104" d="M723.21,509.88c.58,1.05,0,1.84-.7,2.48a2.34,2.34,0,0,1-2.61.1c-.82-.34-.79-1.26-.71-2.06a2.51,2.51,0,0,1,.31-.26C720.71,509.72,722,510.1,723.21,509.88Z" transform="translate(-675 -425)"/><path class="cls-105" d="M723.21,509.88c-.1.49-.46.59-.88.58a16.66,16.66,0,0,1-2.91-.09c-.26-.91.5-1.21,1-1.66C721.7,508.26,722.48,509,723.21,509.88Z" transform="translate(-675 -425)"/><path class="cls-106" d="M720.42,508.71c0,.73-1.24.76-1,1.66a.91.91,0,0,0-.23,0C719.21,509.55,719.42,508.84,720.42,508.71Z" transform="translate(-675 -425)"/><path class="cls-107" d="M734.75,599.55c0,.67-.29.82-.92.51-3.36-1.67-6.74-3.3-10.11-5-.91-.46-1.79-1-2.68-1.51-.41-.22-.07-.24.08-.31,1.8.84,3.6,1.67,5.39,2.52,1.1.53,2.25.93,3.36,1.43C731.52,598,733.06,598.9,734.75,599.55Z" transform="translate(-675 -425)"/><path class="cls-108" d="M720.41,492.17c1.66-.21,2.32.17,2.81,1.62-1.12.76-2.34.4-3.51.27-.44-.05-.55-.51-.29-.93h0A4,4,0,0,1,720.41,492.17Z" transform="translate(-675 -425)"/><path class="cls-109" d="M722.77,495.08c-.2.33-.28.74-.7.88a2,2,0,0,1-2.55-.76c-.39-.74-.22-1.16.67-1.11a8.07,8.07,0,0,1,2.59.16A.65.65,0,0,1,722.77,495.08Z" transform="translate(-675 -425)"/><path class="cls-110" d="M722.74,494.34c-.83,0-1.66,0-2.49,0s-.91.31-.54.93a.17.17,0,0,1-.26,0,1.85,1.85,0,0,1,0-2.14c0,.5.15.78.75.74,1-.07,2-.06,3.05-.08,0,.18,0,.36,0,.54A.36.36,0,0,1,722.74,494.34Z" transform="translate(-675 -425)"/><path class="cls-111" d="M719.45,495.27l.26,0a2.83,2.83,0,0,0,2.36.72C720.79,496.44,719.92,496.22,719.45,495.27Z" transform="translate(-675 -425)"/><path class="cls-112" d="M720.41,492.17c0,.64-.65.66-1,1C719.5,492.56,719.72,492.12,720.41,492.17Z" transform="translate(-675 -425)"/><path class="cls-113" d="M722.74,494.34h.5c.06.38.06.73-.47.75Z" transform="translate(-675 -425)"/><path class="cls-114" d="M855.67,505.34a2.21,2.21,0,0,1-1.91,0,.43.43,0,0,1,0-.7c.44-.81,1.21-.36,1.84-.49,0,.31,0,.63.07.95A.18.18,0,0,1,855.67,505.34Z" transform="translate(-675 -425)"/><path class="cls-115" d="M851.59,505.35c.13.88-.36,1-1.11,1s-1.23-.13-1.09-1c-.49-.31-.49-.63,0-.94,0-.56-.2-1.27.81-1.21.7,0,1.51-.17,1.43,1A.85.85,0,0,1,851.59,505.35Z" transform="translate(-675 -425)"/><path class="cls-116" d="M853.78,504.65l0,.7-.08,0a3,3,0,0,1-1.87,0h0c-.31-.84,0-1.19.87-1.09.34,0,.72-.11,1,.15Z" transform="translate(-675 -425)"/><path class="cls-116" d="M849.39,504.4a.77.77,0,0,0,0,.94l-.19,0a1.19,1.19,0,0,1-.72.06c-.39-.17-.88,0-1.21-.33v-.71a3.62,3.62,0,0,1,1.93,0Z" transform="translate(-675 -425)"/><path class="cls-117" d="M853.7,504.42c-.71.16-1.91-.66-1.9.94h-.21c0-.4,0-.79,0-1.18C852.32,504.24,853.06,503.9,853.7,504.42Z" transform="translate(-675 -425)"/><path class="cls-118" d="M849.19,504.36l-1.93,0v-.25C847.91,504.23,848.59,504,849.19,504.36Z" transform="translate(-675 -425)"/><path class="cls-119" d="M778.39,568.64c.37,0,.68,0,.75.45C778.79,569.11,778.47,569.08,778.39,568.64Z" transform="translate(-675 -425)"/><path class="cls-120" d="M863.35,506.77c0,.37-.05.71-.57.73s-.68-.28-.68-.73a.49.49,0,0,1,0-.67c0-.42.11-.74.64-.75s.62.33.63.75A.49.49,0,0,1,863.35,506.77Z" transform="translate(-675 -425)"/><path class="cls-121" d="M855.67,505.34l0-.23c.34-1,1.19-.67,1.89-.72l.21.73c-.63.64-1.35.35-2.06.2Z" transform="translate(-675 -425)"/><path class="cls-122" d="M863.35,506.77v-.67l1.39,0v.7Z" transform="translate(-675 -425)"/><path class="cls-123" d="M862.09,506.1c0,.22,0,.45,0,.67h-1.18a.48.48,0,0,1,0-.7Z" transform="translate(-675 -425)"/><path class="cls-22" d="M855.73,505.32c.69-.05,1.41.24,2.07-.2a.58.58,0,0,1,.26.52.71.71,0,0,1-.21.7c0-.52-.24-.76-.8-.78S856.1,505.78,855.73,505.32Z" transform="translate(-675 -425)"/><path class="cls-124" d="M861,506.08l0,.7-.93,0C859.9,506,860.49,506.11,861,506.08Z" transform="translate(-675 -425)"/><path class="cls-125" d="M859.72,507.26l-.92,0c0-.74.59-.39.93-.48Z" transform="translate(-675 -425)"/><path class="cls-126" d="M857.56,506.78c-.37.84-1.1.36-1.68.47C856.25,506.41,857,506.94,857.56,506.78Z" transform="translate(-675 -425)"/><path class="cls-118" d="M848.45,505.34l.75,0a2,2,0,0,1-2,0A1.33,1.33,0,0,1,848.45,505.34Z" transform="translate(-675 -425)"/><path class="cls-117" d="M851.81,505.36l1.87,0A1.7,1.7,0,0,1,851.81,505.36Z" transform="translate(-675 -425)"/><path class="cls-127" d="M848.45,505.34l-1.2,0,0-.25C847.67,505.15,848.11,505,848.45,505.34Z" transform="translate(-675 -425)"/><path class="cls-128" d="M721.14,510.94a3,3,0,0,1,.6,0c.33.07.92-.25.92.39a1.11,1.11,0,0,1-.77.94,1.89,1.89,0,0,1-2.13-.82c-.22-.25-.08-.53.31-.53h1.07Z" transform="translate(-675 -425)"/><path class="cls-129" d="M851.3,505.56c-.1.75-.69.46-1.1.49s-.55-.32-.54-.71a.62.62,0,0,1,.28-.14,3.45,3.45,0,0,1,1,.1A1.07,1.07,0,0,1,851.3,505.56Z" transform="translate(-675 -425)"/><path class="cls-130" d="M849.68,504.17c-.08-.58.23-.74.76-.74s1,.05.87.74a.55.55,0,0,1-.44.13,1.72,1.72,0,0,0-.9,0A.38.38,0,0,1,849.68,504.17Z" transform="translate(-675 -425)"/><path class="cls-131" d="M850.88,504.17h.43c0,.46,0,.93,0,1.39l-.43,0A.92.92,0,0,1,850.88,504.17Z" transform="translate(-675 -425)"/><path class="cls-132" d="M849.68,504.17h.18a.73.73,0,0,1,0,1.17h-.21C849.67,505,849.67,504.56,849.68,504.17Z" transform="translate(-675 -425)"/><path class="cls-133" d="M849.87,505.34c0-.39,0-.78,0-1.17q.51-1.05,1,0c0,.47,0,.94,0,1.42C850.52,505.57,850.14,505.68,849.87,505.34Z" transform="translate(-675 -425)"/></svg>