<svg id="Calque_1" data-name="Calque 1" xmlns="http://www.w3.org/2000/svg" viewBox="0 0 570.48 230.16"><defs><style>.cls-1{fill:#014b6b;}.cls-2{fill:#fefefe;}.cls-3{fill:#93f5dc;}.cls-4{fill:#016691;}.cls-5{fill:#2796a2;}.cls-6{fill:#00436d;}.cls-7{fill:#013a52;}.cls-8{fill:#1e3c4f;}.cls-9{fill:#0b2b40;}.cls-10{fill:#00557e;}.cls-11{fill:#005878;}.cls-12{fill:#70ccd7;}.cls-13{fill:#60b8d5;}.cls-14{fill:#023a52;}.cls-15{fill:#57abc4;}.cls-16{fill:#71cdd7;}.cls-17{fill:#15546a;}.cls-18{fill:#266a8d;}.cls-19{fill:#256c93;}.cls-20{fill:#22668b;}.cls-21{fill:#3f8cbc;}.cls-22{fill:#4396ca;}.cls-23{fill:#4496cb;}.cls-24{fill:#256c94;}.cls-25{fill:#4694bf;}.cls-26{fill:#4a9bc3;}.cls-27{fill:#4597c1;}.cls-28{fill:#55abd3;}.cls-29{fill:#5aafc9;}.cls-30{fill:#3d8a9a;}.cls-31{fill:#4fa2c3;}.cls-32{fill:#266d8f;}.cls-33{fill:#4a9cc3;}.cls-34{fill:#3a8698;}.cls-35{fill:#509f9c;}.cls-36{fill:#2e7590;}.cls-37{fill:#276e8f;}.cls-38{fill:#4592bf;}.cls-39{fill:#2e7797;}.cls-40{fill:#033c54;}.cls-41{fill:#358099;}.cls-42{fill:#4492be;}.cls-43{fill:#347e99;}</style></defs><path class="cls-1" d="M1245.45,425.3q0,114.36,0,228.72c0,1-.28,1.14-1.19,1.14q-284.52,0-569,0a2.62,2.62,0,0,1-.11-1.3q0-113.6,0-227.19c0-1.63-.18-1.47,1.47-1.47h567.52A2.65,2.65,0,0,1,1245.45,425.3Z" transform="translate(-675 -425)"/><path class="cls-2" d="M1245.45,425.3H676.83c-1.57,0-1.57,0-1.57,1.56V655.14c-.07,0-.25.12-.24-.12s0-.64,0-1q0-114,0-227.92c0-.9.2-1.1,1.1-1.1l568.27,0C1244.72,425.08,1245.18,424.8,1245.45,425.3Z" transform="translate(-675 -425)"/><path class="cls-3" d="M817.25,487.85a2.73,2.73,0,0,1,1.3-.1h67.91c.38,0,.91-.3,1.14.32s-.2,1.29-.6,1.81c-1.2,1.59-2.19,3.32-3.47,4.85a3.76,3.76,0,0,0-.43,4.22,2.65,2.65,0,0,1-.28,1.27c-1.49,3.22-2.83,6.51-4.25,9.76a2.81,2.81,0,0,0-.15,2.18c.72,2.12,1,4.35,1.82,6.45a2.55,2.55,0,0,1-.45,2.57c-1.67,2.25-3.51,4.35-5.25,6.53a1.06,1.06,0,0,1-1,.53c-.76-.4-.63-1.15-.62-1.8,0-.88-.38-1.21-1.23-1.18s-1.85-.13-2.4,1c-.37.8-1.47.87-2.26,1.22-.51.23-1,.36-1.34.88s-1.16.48-1.63.93a1.46,1.46,0,0,1-1,0,1,1,0,0,1-.45-.44,5.36,5.36,0,0,1-.25-2.45c0-.8-.36-1.13-1.15-1.14a28.23,28.23,0,0,1-3.68-.07c-.54-.08-.73.4-1.11.57a2.41,2.41,0,0,1-1.9,0c-.67-.61-1.69-.14-2.34-.78-.22-1.82,0-3.68-.35-5.5-.07-.15-.17.09,0,0s.11,0,.11,0c0,1.27.21,2.53.17,3.8,0,.31,0,.63,0,.95,0,.78-.37,1-1.08,1.07-1.92.13-1.89.15-1.93,2a6.12,6.12,0,0,1-.19,2.69c-1.4.58-2.06.21-2.09-1.29-.06-3.19,0-6.38,0-9.57,0-1.75-.1-1.84-1.82-1.85-1.23,0-2.47,0-3.71,0-1,0-1.36.38-1.36,1.35,0,2.31,0,4.62,0,6.94,0,1.34-.43,1.66-1.77,1.63-.82,0-1.4-.39-1.33-1.18.15-2-1.28-2.63-2.59-3.34a18.26,18.26,0,0,1-3.46-2.3c-1.16-.73-1.55-2-2-3.14a16.89,16.89,0,0,0-.78-1.73c-1.34-2.4-2.34-5-3.52-7.42a.87.87,0,0,0-.37-.45c-1.16-.39-2.48-.06-3.59-.73-.64-.69-.28-1.42-.06-2.13.71-2.24,1.64-4.41,2.16-6.72a2.42,2.42,0,0,0-.24-2c-1.29-1.92-2.63-3.81-3.93-5.72C817.8,489.63,817,488.94,817.25,487.85Z" transform="translate(-675 -425)"/><path class="cls-4" d="M831.9,585.63c-.81.79-2,.7-2.89,1.19a1,1,0,0,1-.91.69c-2.21.36-4.3,1.19-6.46,1.74q-7.6,1.93-15.14,4c-3.3.92-6.65,1.66-9.93,2.7-1,.32-2.15,0-3.11.63a12.67,12.67,0,0,1-3.42-.23,1.67,1.67,0,0,1-1.07-.69q0-22.55,0-45.08c.48-.42,1-.22,1.47,0,5,1.9,10.19,3.48,15.18,5.51a10.91,10.91,0,0,1,2.17.67c3.38,1.26,6.81,2.41,10.22,3.62a64.41,64.41,0,0,1,6.46,2.44c1.32.29,1.41,1.49,1.34,2.37-.17,2.41.94,3.68,3.11,4.4s3.08,2.43,3,4.79c-.07,2.93.19,5.87.4,8.8C832.42,584,832.73,585,831.9,585.63Z" transform="translate(-675 -425)"/><path class="cls-4" d="M911.51,550.86l0,36.39c0,3,0,6,0,9,0,.79-.1,1-1,.74-3.92-1.17-7.9-2.16-11.86-3.22-5.42-1.45-10.83-3-16.26-4.36-2.42-.63-4.82-1.35-7.24-2-1.46-.38-2.94-.71-4.41-1a3,3,0,0,1-1.48-.73c-.84-.89-.5-2-.41-3,.07-.83.15-1.66.15-2.5,0-2.63.2-5.25.46-7.86a2.37,2.37,0,0,1,1.39-1.95,27.8,27.8,0,0,1,2.67-1.35,2.54,2.54,0,0,0,1.72-2.71,9.74,9.74,0,0,1,0-1.08,2.64,2.64,0,0,1,2.12-2.79c.59-.12,1.09-.5,1.68-.63,2.44-1,5-1.75,7.43-2.62,4.85-1.7,9.66-3.5,14.55-5.08a12.35,12.35,0,0,0,2.12-.81c2.21-1,4.57-1.5,6.81-2.36A1.58,1.58,0,0,1,911.51,550.86Z" transform="translate(-675 -425)"/><path class="cls-5" d="M807.65,557.1c-4.35-1.26-8.55-3-12.82-4.44-2-.68-3.88-1.41-5.84-2q0-8.22,0-16.45a5.64,5.64,0,0,1,.21-1,6,6,0,0,1,.68-2.39c1.94-3.67,3.54-7.5,5.52-11.14.87-1.61,1.63-3.29,2.4-5,1.3-2.79,2.69-5.52,4.11-8.24a2.44,2.44,0,0,1,2.74-1.39,20,20,0,0,0,3.55.27c3.41.21,6.81.58,10.22.8a2.62,2.62,0,0,1,2,.68,29.77,29.77,0,0,1,4.1.48,8.36,8.36,0,0,1-.49,2.56c-1.71,5.05-3.39,10.11-5.09,15.16q-2.11,6.27-4.2,12.56c-1.46,4.46-2.86,8.94-4.38,13.38-.56,1.65-1.06,3.33-1.67,5C808.46,556.4,808.33,557,807.65,557.1Z" transform="translate(-675 -425)"/><path class="cls-5" d="M911.51,550.86q-3.76,1.36-7.55,2.7a1.65,1.65,0,0,1-.58,0,1,1,0,0,1-.86-.74,55.82,55.82,0,0,0-2.68-5.07c-1.09-2.16-2.2-4.32-3.37-6.45-1.76-3.21-3.37-6.51-5.12-9.73-2.06-3.82-3.91-7.75-6.08-11.51a22.24,22.24,0,0,1-1-2.41c-.41-1-.07-1.57,1-1.69,2.3-.26,4.58-.71,6.89-.77.35,0,.77.09,1-.28s-.13-.67-.32-1c-3-4.56-5.87-9.19-8.81-13.79-.37-.58-1-1.23-.29-2,1.14-.48,2.36-.26,3.53-.38,2.24-.22,4.49-.4,6.75-.48a7.53,7.53,0,0,0,1.9-.1,3,3,0,0,1,3.2,1.3q3.21,3.84,6.46,7.66c1.51,1.75,3,3.53,4.49,5.27a4,4,0,0,1,1.37,2.32,5.5,5.5,0,0,1,.18,1Q911.53,532.8,911.51,550.86Z" transform="translate(-675 -425)"/><path class="cls-6" d="M807.9,505.78c-1.31-.11-2.62-.19-3.93-.35a1.19,1.19,0,0,0-1.37.67c-1.39,2.56-2.63,5.18-3.89,7.81-1,2.11-2.15,4.18-3.12,6.31-1.07,2.36-2.37,4.6-3.38,7-.86,2-2,4-3,5.93a2.09,2.09,0,0,1-.21-1.39c0-14.19,0-28.39,0-42.59,0-1.18.28-1.57,1.53-1.56,8.46.05,16.92,0,25.38,0,.31.64-.09,1.15-.34,1.67-1.92,4-3.88,7.92-5.73,11.92a15.25,15.25,0,0,1-.94,1.79A4.93,4.93,0,0,0,807.9,505.78Z" transform="translate(-675 -425)"/><path class="cls-7" d="M861.4,584H842c-.62-.4-.51-1-.51-1.62,0-3.3,0-6.6,0-9.9a2.31,2.31,0,0,0-1.36-2.36,11.93,11.93,0,0,1-3.44-2.52,25.16,25.16,0,0,1-.19-6.31,3.45,3.45,0,0,1,2.58-2.68,10.48,10.48,0,0,1,5.07,0,1.94,1.94,0,0,1,.87.36,2.51,2.51,0,0,0,1.89.58c1.32,0,1.47.25,1.71,1.48.15.74-.14,1.6.32,2.21s1.43.26,2.15.41a1.39,1.39,0,0,1,1.21,1.41c.05.68,0,1.36,0,2s.34,1.17,1.14.82c.63-.27,1.71,0,1.63-1.19s.66-2.69-1.14-3.37a10,10,0,0,1-3.11-2.56,8.45,8.45,0,0,1-.66-8.51,7.31,7.31,0,0,1,3.66-3.61,6.55,6.55,0,0,1,2.64-1c.52-.06,1-.11,1.37.42,0,.44-.32.62-.63.75a20.19,20.19,0,0,0-3.07,1.91,7.22,7.22,0,0,0,1.36,11.32c.39.27.87.58,1.31.17s1.56-.77,1.49-1.84-.05-1.91,0-2.86c0-1.75.24-2,1.94-2.44.57-.47,1-1.12,1.89-1,1.2-.15,2.38-.29,3.19.91a1.76,1.76,0,0,1,.42,1.09c0,4,.24,8-.14,12-.28,1.2-1.35,1.66-2.25,2.14a2.44,2.44,0,0,0-1.42,2.49c0,3.22,0,6.44,0,9.67C861.91,582.93,862,583.57,861.4,584Z" transform="translate(-675 -425)"/><path class="cls-7" d="M793.54,596.19c3.47-.69,6.76-2,10.24-2.67a20.63,20.63,0,0,0,2.41-.69c4.1-1.29,8.28-2.31,12.44-3.37,3.46-.87,6.81-2.21,10.38-2.64a15.77,15.77,0,0,1,3.11,1.17,48.49,48.49,0,0,0,10,3.52c2.15.42,4.2,1.33,6.35,1.71,3.45.63,6.74,1.88,10.18,2.54a22.3,22.3,0,0,1,3.26,1.17,41,41,0,0,1,5.38,2.06c-15.31-.14-30.62.39-45.94-.17a14.15,14.15,0,0,1-3.79,0c-3.43-.07-6.85-.29-10.27-.47-4.24-.24-8.48-.75-12.69-1.39C794.12,596.86,793.58,596.86,793.54,596.19Z" transform="translate(-675 -425)"/><path class="cls-6" d="M911.35,513.71c-1.57-1.88-3.08-3.83-4.76-5.62-1.13-1.2-2.18-2.49-3.25-3.74-1.74-2.05-3.5-4.08-5.19-6.17a1.41,1.41,0,0,0-1.49-.64,23.74,23.74,0,0,1-2.38.14c-1.24-1.43-1.82-3.23-2.71-4.86-.71-1.32-1.17-2.77-2-4.07a1.12,1.12,0,0,1-.16-1.13c6.91,0,13.82,0,20.74,0,.91,0,1.37.16,1.36,1.23,0,7.95,0,15.89,0,23.84A1.65,1.65,0,0,1,911.35,513.71Z" transform="translate(-675 -425)"/><path class="cls-8" d="M836.93,567.39c1.52.76,2.71,2.06,4.32,2.69.72.28.73.95.73,1.61q0,6.13,0,12.28c.13,1-.19,1.62-1.3,1.65a78.3,78.3,0,0,0-8.25.22c-.17,0-.36-.13-.54-.21-.23-4.45-.48-8.9-.68-13.36a1.4,1.4,0,0,0-.93-1.35c-1.21-.59-2.38-1.29-3.6-1.85a2.15,2.15,0,0,1-1.25-2.11,21.05,21.05,0,0,1-.2-2.49c0-.82-.39-1.13-1-1.36-.61-1.14-.1-2.19.24-3.26.62-.62,1.17-.15,1.71.15,1.76.94,3.34,2.17,5,3.21a3.22,3.22,0,0,0,.68.48,1,1,0,0,1,.29.16c.93.58,1.87,1.15,2.81,1.72A4.6,4.6,0,0,1,836.93,567.39Z" transform="translate(-675 -425)"/><path class="cls-8" d="M861.4,584c0-3.89.05-7.79,0-11.69a2.3,2.3,0,0,1,1.47-2.42,8.1,8.1,0,0,0,2.4-1.71,3.24,3.24,0,0,1,1.55-1.26,32.23,32.23,0,0,1,3.79-2.45c2.26-1.6,4.62-3,7-4.5.48-.3.94-.79,1.61-.41a2.12,2.12,0,0,1,.26,2.64c-.51.23-1,.48-1.53.68-2,.73-2,.72-2.08,2.84v.24c-.1,2.62.1,2.59-2.9,3.94-.83.37-1.61.87-2.42,1.29-.42.23-.45.61-.47,1-.15,2.34-.32,4.68-.44,7-.11,2.15-.18,4.29-.27,6.44-2.07,0-4.15,0-6.23,0C862,585.61,861.16,585.33,861.4,584Z" transform="translate(-675 -425)"/><path class="cls-9" d="M807.9,505.78c-1-.47-.46-1.18-.16-1.69,1.19-2,2.08-4.2,3.13-6.3,1.69-3.37,3.32-6.77,5-10.16a2.69,2.69,0,0,1,1.4.22c1.5,2.3,3,4.58,4.69,6.77a4.08,4.08,0,0,1,.86,4.37c-.8,2.13-1.49,4.33-2.19,6.51a8.88,8.88,0,0,0-.23,1.27Z" transform="translate(-675 -425)"/><path class="cls-9" d="M889.46,487.62a15.43,15.43,0,0,1,1.81,3.34c.68,2,2.05,3.69,2.72,5.69.11.34.19.69.29,1-3.59.34-7.18.69-10.79.74-.18.24-.27.62-.71.46-1.08-2.13-.91-2.95.65-4.83a63.29,63.29,0,0,0,4.17-6A3.11,3.11,0,0,1,889.46,487.62Z" transform="translate(-675 -425)"/><path class="cls-10" d="M793.54,596.19a29.44,29.44,0,0,0,4.58.69c6.08.87,12.23,1,18.34,1.48,1.63.14,3.25.31,4.87.46-.45.37-1,.23-1.5.23H790.69c-1.72,0-1.72,0-1.73-1.69,0-.56,0-1.11,0-1.67A29.29,29.29,0,0,0,793.54,596.19Z" transform="translate(-675 -425)"/><path class="cls-11" d="M882.78,498.88c.22-.18.33-.53.71-.46,1.79,2.95,3.69,5.83,5.55,8.74,1,1.6,2.16,3.14,3,4.84a11.09,11.09,0,0,0,1.38,2,1.31,1.31,0,0,1,.29,1.34c-.21.53-.75.36-1.16.35-2.56,0-5.06.62-7.61.76-.78.05-.66.48-.4,1l4.33,8.33q2.77,5.35,5.56,10.7c1.51,2.89,3,5.78,4.53,8.67s3,5.59,4.4,8.45a2.92,2.92,0,0,1-2,1c-1.71.44-3.31,1.18-5,1.75-4.87,1.7-9.76,3.37-14.64,5.05l-2.37.84c-.17-.88-.34-1.76-.5-2.64a1.43,1.43,0,0,1-.71-1.19c-.28-3.11-1.31-6.07-1.81-9.13-.65-4.06-1.63-8-2.44-12.06-.29-1.43-.37-2.91-.78-4.33a21.09,21.09,0,0,0-.56-3.14c-.09-.83.12-1.4,1-1.55,2-2.56,4.06-5.14,6.12-7.69a1.16,1.16,0,0,0,.14-1.21c-.69-2.44-1.34-4.89-2.06-7.32a2.27,2.27,0,0,1,.1-1.7c1.5-3.44,2.88-6.92,4.51-10.3A8.67,8.67,0,0,0,882.78,498.88Z" transform="translate(-675 -425)"/><path class="cls-11" d="M824.71,559.75a15.23,15.23,0,0,1-.49,3.36c-3.48-1.26-6.93-2.6-10.44-3.76a58.42,58.42,0,0,1-6.13-2.25c1.16-2.59,1.74-5.37,2.75-8,1.24-3.19,2.13-6.49,3.24-9.72,1.51-4.39,3-8.8,4.41-13.21s2.88-8.67,4.33-13a62.3,62.3,0,0,1,2.1-5.93c.51,1.63,1.55,3,2.2,4.58,1,2.52,2.37,4.9,3.42,7.41.12.28.2.61.52.77a2.59,2.59,0,0,1,.5,2.43c-.2,1.33-.54,2.62-.67,4a35.55,35.55,0,0,0-.94,6.82c-.38,1.62-.62,3.27-.88,4.9-.34,2.13-.88,4.22-1.07,6.36-.41,4.57-1.45,9-2.12,13.56A2.59,2.59,0,0,1,824.71,559.75Z" transform="translate(-675 -425)"/><path class="cls-12" d="M829.92,526.4c.24-1.43.47-2.86.72-4.29a4.39,4.39,0,0,0,0-2.1c1.78,1.1,3.53,2.26,5.36,3.28a2.1,2.1,0,0,1,1.19,2.33c-.1.83.07,1.35,1.13,1.34s1.05-.57,1-1.31c0-2.52,0-5,0-7.54,0-1,.35-1.31,1.32-1.28,1.75.06,3.51.07,5.26,0,1,0,1.4.27,1.38,1.34-.06,3.47,0,6.94,0,10.41,0,1.13.3,1.66,1.47,1.45.09.45-.26.53-.55.61a4,4,0,0,1-4.27-1.75c-.15-.26-.24-.58-.61-.77-.53.38-.78,1.23-1.64,1.16a1.2,1.2,0,0,1-.9-.7,1.16,1.16,0,0,0-1.59-1,5.37,5.37,0,0,1-1.2.06c-1.67,0-1.67,0-1.68,1.72,0,2.43,0,4.86,0,7.29a1.91,1.91,0,0,1-.42,1.57.63.63,0,0,1-.58,0,1.36,1.36,0,0,1-.47-1.26c0-.93-.24-1.53-1.3-1.48a1.41,1.41,0,0,1-1-.36,2,2,0,0,1-.38-1.47c0-.83,0-1.67,0-2.5,0-1.08,0-2-1.22-2.55A2.07,2.07,0,0,1,829.92,526.4Z" transform="translate(-675 -425)"/><path class="cls-12" d="M873.64,528.12c-.88.64-.57,1.47-.41,2.3s.62,1.46.19,2.26a.52.52,0,0,1-.32.11c-1.28-.93-2.73-.52-4.13-.55a.7.7,0,0,0-.63.47,1.72,1.72,0,0,1-1.27,1,.85.85,0,0,1-.7,0c-.1-.07-.23-.14-.25-.25A9,9,0,0,0,864,529.1c1.16-.36,1.3-2.07,2.88-2,.53,0,1.13-.72,1.87-.72.09,0,.26-.23.26-.35,0-1.36.88-1.24,1.78-1.23,2.46,0,2.46,0,2.57,2.47A1.18,1.18,0,0,0,873.64,528.12Z" transform="translate(-675 -425)"/><path class="cls-13" d="M841.74,529.07c.62-.31.82-.94,1.11-1.5s.56-.67.87,0l.38.74a3.54,3.54,0,0,0,4.59,1.75c0-1.3,0-2.61,0-3.91,0-.91.32-1.24,1.18-1.13h.24c1.68,0,1.68,0,1.72-1.65.37-.06.31.22.34.43.07.41-.15.84.15,1.22.71.18,1.57-.41,2.16.42a.85.85,0,0,1-.27.35,7.26,7.26,0,0,1-2.82.24c-1.24.07-1.43.22-1.45,1.49,0,2.06,0,4.13,0,6.19s-.28,2.36-2.48,2.15c-.71-.35-.72-1-.67-1.64a2.18,2.18,0,0,0-1.09-2.07c-.93-.67-2-1.09-3-1.75C842.27,530.05,841.63,529.85,841.74,529.07Z" transform="translate(-675 -425)"/><path class="cls-12" d="M856.35,525.45a1.14,1.14,0,0,1,1.12-.7q2.21,0,4.41,0c.72,0,1,.29,1,1,0,1,0,2.06,0,3.09-.3.41-.73.33-1.15.32a7.6,7.6,0,0,0-2.89.1,2.73,2.73,0,0,1-1.27,0c-.72-.32-.5-1-.57-1.55s.32-1.44-.42-2A.69.69,0,0,1,856.35,525.45Z" transform="translate(-675 -425)"/><path class="cls-14" d="M864,529.1a3,3,0,0,1,2.17,2.89c0,.55.17,1.09.26,1.63a8.14,8.14,0,0,1,.56,3.27c0,.38-.13.77.08,1.14.33,1,1.24,1.49,1.83,2.26a1.1,1.1,0,0,1,0,1.28c-1,.68-1.54-.37-2.27-.68-1.6-1-2.52-2.22-2.12-4.21a10.44,10.44,0,0,0-.27-2.47,2.28,2.28,0,0,0-.1-1.24,8.06,8.06,0,0,0-.52-1.94,2.49,2.49,0,0,0-.85-1.28c-.17-.16-.34-.31-.3-.58s.39-.22.62-.14Z" transform="translate(-675 -425)"/><path class="cls-15" d="M856.35,525.45l.27,0c.5.44.34,1,.34,1.57,0,1,0,2,0,3a11.81,11.81,0,0,1-1.63,3.81.69.69,0,0,1-.7.37c-.6-.22-.67-.74-.68-1.27,0-2.1,0-4.2,0-6.3a1.45,1.45,0,0,1,.49-1.16l0-.09Z" transform="translate(-675 -425)"/><path class="cls-16" d="M852.32,525c-.52-.44,0-1.19-.49-1.65v-3.92A27.41,27.41,0,0,1,852.32,525Z" transform="translate(-675 -425)"/><path class="cls-17" d="M863.16,529l-.53.23a.92.92,0,0,1-1.19.24c-.25-.1-.58-.25-.48-.57s.45-.19.71-.14l1.17.05Z" transform="translate(-675 -425)"/><path class="cls-18" d="M864.57,532.87a2,2,0,0,1,.18,1.26c0,3-.45,6.11,1.33,8.87a51.68,51.68,0,0,1,0,7.67,1.9,1.9,0,0,1-.14.4c-.53.7-1.36.51-2.06.71-.87,0-1.19-.85-1.79-1.28a10.37,10.37,0,0,0-3.58-1.78.92.92,0,0,1-.75-.51c-1-.4-1.83.07-2.72.33-.37.11-.72.29-1.09.43-.85-.72-.47-1.71-.48-2.58,0-2.18,0-2.18-2.19-2.19a8.16,8.16,0,0,1-2.14-.23,1,1,0,0,0-1.4,1c-.08.68-.23,1.34-.27,2-.07,1.08-.47,1.4-1.54,1.34-.71,0-1.43,0-2.15,0a2.56,2.56,0,0,0-2.76,2.64,1.68,1.68,0,0,1-.42,1.21.73.73,0,0,1-.92-.13c-.55-.69.13-1.77-.74-2.36a1.1,1.1,0,0,1-.24-.74,7.06,7.06,0,0,1,.63-4.71c.28-.48.58-.9,1.13-1a27.51,27.51,0,0,1,4.16,0,1.51,1.51,0,0,1,1,.63c0-1.06-.37-2.13.33-3.08.27-.37.8-.29,1.1-.63a41.06,41.06,0,0,1,4.13-1.82c.28-.05.51-.25.8-.27.49,0,.75-.34,1-.64a1.61,1.61,0,0,1,1.29-.66.84.84,0,0,1,.62.34,2.38,2.38,0,0,0,2.42,1.14c.85,0,1.21-.46,1.14-1.3,0-.43.08-.86.07-1.3-.17-2,0-2.23,1.87-2.54a1,1,0,0,0,.92-1,5,5,0,0,1,.2-1.89c.14-.32.31-.72.75-.63s.38.47.39.79,0,.8,0,1.2C862.75,533.05,863.05,533.26,864.57,532.87Z" transform="translate(-675 -425)"/><path class="cls-19" d="M840.54,552.08v-1.31a2.78,2.78,0,0,1,2.77-3,27.31,27.31,0,0,1,2.86.07c.28,0,.7.16.72-.15a6.54,6.54,0,0,0,.1-2.88c-.18-.5-.15-.61.28-.9a2.78,2.78,0,0,1,2.79-.32,9.75,9.75,0,0,0,3.2.08c.73,0,1.08.31.91,1A21.83,21.83,0,0,0,854,549c-4.32,3-5.2,6.55-2.84,11.49a2,2,0,0,1-1.73.89c-.55,0-1-.14-1.08-.84a14.82,14.82,0,0,1-.42-2.32c.05-.69-.37-1-1-1l-.72,0c-1.36-.08-1.72-.46-1.79-1.85,0-.24,0-.48,0-.72,0-.83-.31-1.27-1.19-1.27A3.6,3.6,0,0,1,840.54,552.08Z" transform="translate(-675 -425)"/><path class="cls-20" d="M840.54,552.08c.58,0,1.14-.06,1.61.52.34.42,1,.21,1.5.19.83,0,1.25.19,1.23,1.13s-.36,1.83.18,2.44,1.58.22,2.4.27,1,.37,1,1,0,1.52,0,2.28c0,1,.55,1.16,1.31.86a3.28,3.28,0,0,1,1.37-.36c1.38,1,2.45,2.54,4.29,2.9.34.07.26.31.25.56,0,1.12,0,2.23,0,3.35,0,.59-.2.91-.83.88a2.12,2.12,0,0,0-.71.06c-2.27.61-2.27.62-2.27-1.68s0-2.44-2.48-2.45c-.9,0-1.25-.31-1.14-1.18a1.92,1.92,0,0,0,0-.24c0-2.48,0-2.48-2.51-2.69-.16,0-.43,0-.46-.06-.5-1.17-1.65-.62-2.44-1-1.56-.67-3,.09-4.36.43a2.42,2.42,0,0,0-1.51,2.15c0,2,0,3.91,0,5.86l-5-3.31a.82.82,0,0,1,.85-.68c1,0,1.41-.5,1.32-1.48a9.83,9.83,0,0,1,.15-1,.83.83,0,0,1,.13-.34,7.51,7.51,0,0,1,2.62-2,3,3,0,0,0,1.88-3,11.51,11.51,0,0,1,.29-2.48,1.3,1.3,0,0,1,.71-1.15Z" transform="translate(-675 -425)"/><path class="cls-21" d="M857.78,548.21a7.77,7.77,0,0,1,6,3.43,3.18,3.18,0,0,1,1.59,2.8c0,.33,0,.75-.57.7-.07-.58-.5-.59-.94-.6l-2,0c-.49-.76-.49-.76-.29-2.34-1.08,1.11-.44,2.54-1.15,3.51-1.61.09-1.61.09-1.61,1.68a11.63,11.63,0,0,0,0,1.67,3.13,3.13,0,0,1-1.5,3.52c-.61.39-1,.67-1.64.26-2.26-1.47-3.88-3.36-4.11-6.17a3.91,3.91,0,0,1,1.77-2.18,1,1,0,0,0,.52-1.27,5.89,5.89,0,0,1,0-2.83A10,10,0,0,1,857.78,548.21Z" transform="translate(-675 -425)"/><path class="cls-20" d="M864.8,555.14c.5-.85-.1-1.55-.37-2.28a9.51,9.51,0,0,0-.65-1.22c.48-.79,1.27-.43,1.94-.52,1.62-.41,2.1-1.57,2.2-3.1.06-.91.64-1.09,1.77-.71.6.72.32,1.61.45,2.42a36.83,36.83,0,0,1,.42,6.8,2.44,2.44,0,0,1-.81,1.91,3.15,3.15,0,0,1-.77.54,2.66,2.66,0,0,0-1.56,2.67c.07,1.34,0,2.69,0,4a1.94,1.94,0,0,1-.52,1.52,3.82,3.82,0,0,1-1.66.94q0-5.73,0-11.46A1.92,1.92,0,0,0,864.8,555.14Z" transform="translate(-675 -425)"/><path class="cls-22" d="M853.9,550.35c.51.53.28,1.19.3,1.8.07,1.94.06,2-1.39,3.36-.39.39-.81.74-1.21,1.12A7.6,7.6,0,0,1,853.9,550.35Z" transform="translate(-675 -425)"/><path class="cls-22" d="M860.45,555.67v-3c0-.36,0-.75.5-.81s1-.17,1.46.27c.1.11.25.29,0,.38-1,.43-.38,1.31-.56,2-.58,0-1,.16-1,.91C860.88,555.64,860.65,555.68,860.45,555.67Z" transform="translate(-675 -425)"/><path class="cls-6" d="M824.71,559.75c.24-2.74.87-5.41,1.3-8.12.7-4.47,1.37-9,2.06-13.43.24-1.53.51-3.06.79-4.58,0-.17.23-.31.36-.47,1.34.23,1.9,1.46,2.79,2.25a10.44,10.44,0,0,0,1,1,2.45,2.45,0,0,1,.73,2,21.19,21.19,0,0,1-.31,5.79,50.87,50.87,0,0,0-.59,7.18c-.38,3.55-.6,7.12-1,10.68-.06.57-.07,1.22-.71,1.54-1.91-.72-3.33-2.23-5.14-3.1C825.59,560.26,825.24,559.83,824.71,559.75Z" transform="translate(-675 -425)"/><path class="cls-23" d="M831.19,563.58c.43-2.51.43-5.07.72-7.6.17-1.54.32-3.08.49-4.62A5,5,0,0,0,833,549a5.8,5.8,0,0,0,0-.59c-.07-1.75,0-3.39,2.24-3.81a.71.71,0,0,1,.73.29A16.08,16.08,0,0,1,839.1,549l.22.5c.33,2.27.18,2.51-2,3.13-1.79.51-2.26,1.11-2.27,3,0,1.08,0,2.15,0,3.23a3.08,3.08,0,0,1-.53,1.91l0,0c-.8,1.25-2.06,2.09-2.93,3.28Z" transform="translate(-675 -425)"/><path class="cls-24" d="M831.62,564c.27-1.72,1.61-2.49,2.93-3.28a7.29,7.29,0,0,1-.16,2.71c-.44.91-1.74,0-2.5.64Z" transform="translate(-675 -425)"/><path class="cls-6" d="M869.34,558.08a1.25,1.25,0,0,0,.73-1.11,39.49,39.49,0,0,0-.36-6.53c-.16-1.05.12-2.16-.38-3.16-.85-.64-.45-1.63-.61-2.44a5.2,5.2,0,0,1,.12-3.26,1.81,1.81,0,0,0-.24-1.18,1.65,1.65,0,0,0-.14-.57,3.21,3.21,0,0,1,.55-3.62c.88-1.08,2-1.85,2.92-2.93.29-.52.79-.55,1.3-.56l.19,0a3.86,3.86,0,0,1,.87,2.76c.25,2.83,1.17,5.52,1.64,8.29.75,4.43,1.71,8.81,2.69,13.19a24.61,24.61,0,0,1,.3,2.6c-2.64,1.88-5.43,3.52-8.15,5.26a2.56,2.56,0,0,1-.72-2.17c0-1.11-.3-2.2-.3-3.31A2.26,2.26,0,0,0,869.34,558.08Z" transform="translate(-675 -425)"/><path class="cls-7" d="M869.34,558.08c.54,0,.9.1.95.76.13,2,.31,4,.48,5.94l-3.86,2.42c0-1.76.09-3.52,0-5.27s.46-3,2.24-3.59C869.2,558.31,869.26,558.17,869.34,558.08Z" transform="translate(-675 -425)"/><path class="cls-25" d="M832.63,536.47l-3.41-3.32c-.5-1.26,0-2.5.14-3.74.14-1,.37-2,.56-3,.33,1.1.83,2,2.12,2.21.64.08.56.56.57,1,0,1.83,0,3.65,0,5.47A.91.91,0,0,1,832.63,536.47Z" transform="translate(-675 -425)"/><path class="cls-26" d="M841.74,529.07a25.93,25.93,0,0,0,4,2.41,2.66,2.66,0,0,1,1.55,3,4.78,4.78,0,0,0,0,1.07.27.27,0,0,1,0,.33c-.72.38-.72,1-.73,1.74s.14,1.53-.66,2c-.6.24-1.08-.09-1.56-.35a12.44,12.44,0,0,0-5-1.85.84.84,0,0,1-.3-.32,5.69,5.69,0,0,1-.23-2.46c0-1.74,0-3.48,0-5.22,0-.62-.09-1.35.64-1.65s1.1.4,1.55.81Z" transform="translate(-675 -425)"/><path class="cls-13" d="M841,528.59a1.84,1.84,0,0,1-.47-.06c-1.21-.51-1.21-.52-1.21.79,0,2.62,0,5.24,0,7.86a.5.5,0,0,1-.18.27,10.47,10.47,0,0,0-2.06,1,1,1,0,0,1-.34.09c-.37,0-.75.06-1-.32,0-3.31,0-6.61,0-9.91,0-1,.21-1.51,1.39-1.22a6.15,6.15,0,0,0,2.38.07C840.78,526.91,841.2,527.39,841,528.59Z" transform="translate(-675 -425)"/><path class="cls-27" d="M835.74,538.19l1.19,0c.17.54-.19.9-.47,1.25-.42.53-.75,1.11-1.13,1.66a1.91,1.91,0,0,0-.06,2.5c.23.3.49.66.19,1.07-.2.6-.47,1.08-1.25,1s-.89.34-.87,1c0,1,0,1.92,0,2.88a1.83,1.83,0,0,1-1,1.9c.26-3.25.54-6.49.79-9.74.09-1.15.13-2.3.19-3.45a1.19,1.19,0,0,1,1.87,0Z" transform="translate(-675 -425)"/><path class="cls-28" d="M835.25,538.19l-1.87,0a2,2,0,0,0-.75-1.7v-1.41c2.63,0,2.63,0,2.62,2.66Z" transform="translate(-675 -425)"/><path class="cls-13" d="M873.23,532.72l-1,.7a7.26,7.26,0,0,1-5.21.15l-.13-.19c.47-.26,1-.37,1-1.13,0-.55.5-.53.9-.53,1,0,2.07,0,3.11,0A1,1,0,0,1,873.23,532.72Z" transform="translate(-675 -425)"/><path class="cls-29" d="M866.71,538.41l-.24-4.79.45-.24v0c.93,1.52.54,3.13.26,4.72A.44.44,0,0,1,866.71,538.41Z" transform="translate(-675 -425)"/><path class="cls-26" d="M847.25,535.78v-.24c2.48,0,2.14.19,2.15-2.17s0-4.53,0-6.79c0-.82.27-1.15,1.11-1.12,1.31.06,2.62,0,3.93,0,0,2.46,0,4.92,0,7.38,0,.44-.19,1,.44,1.22.68,1,.18,1.7-.46,2.41a1.34,1.34,0,0,0-1.53,1c-.13.4-.54.65-.86.92l-.72.27a1.2,1.2,0,0,1-.49-1c-.17-1.47-.18-1.45-1.72-1.4C848.47,536.28,847.74,536.47,847.25,535.78Z" transform="translate(-675 -425)"/><path class="cls-30" d="M864.57,532.87c-.13,1.07-1,.74-1.57.73s-.63-.58-.63-1.05c0-.87,0-1.75,0-2.9a4.73,4.73,0,0,0-.46,3c0,.67-.2,1-.95,1-1.93.08-1.93.12-2,2.14a1.2,1.2,0,0,1-1.88-.12c-.61-1.57-.25-3.21-.25-4.82,0-.35.1-.7.07-1.06s.24-.61.62-.69a6.34,6.34,0,0,1,4.1-.3,1.24,1.24,0,0,0-.33.09c-.15.1-.05.17.06.18.41.06.79.32,1.23.2l.5.24a11.35,11.35,0,0,1,.24,2.89c.33-.66,0-1.39.71-1.69A8.44,8.44,0,0,1,864.57,532.87Z" transform="translate(-675 -425)"/><path class="cls-31" d="M857.57,529.09l-.47.48c0,.34.09.76-.49.7,0-1.59,0-3.18,0-4.77.71-.06.68.44.72.93C857.42,527.32,857.11,528.24,857.57,529.09Z" transform="translate(-675 -425)"/><path class="cls-32" d="M868.84,541.58a31,31,0,0,1,.49,5.7c-1,.41-1,.41-1.2,1.92-.22,1.8-.22,1.8-2,1.92h-.36v-.24a1.51,1.51,0,0,0,.48-1.38c0-2.17-.05-4.34,0-6.51,0-.85-.41-1.84.67-2.4C867.72,540.59,868,541.66,868.84,541.58Z" transform="translate(-675 -425)"/><path class="cls-33" d="M866.71,538.41c.47-1.65.09-3.34.22-5h5.33c-.51,1.37-1.88,2-2.77,3a3.09,3.09,0,0,0-.8,2.76c.06.41.28.85-.09,1.23C867.93,539.78,867,539.43,866.71,538.41Z" transform="translate(-675 -425)"/><path class="cls-34" d="M866.91,540.59a6.4,6.4,0,0,0-.23,2.38.67.67,0,0,1-.95,0c-1.47-.64-1.25-1.94-1.19-3.14.09-1.9-.27-3.82.21-5.7a19.69,19.69,0,0,1,.13,3.44,2.45,2.45,0,0,0,1,2.17Z" transform="translate(-675 -425)"/><path class="cls-35" d="M864.08,530.7c0,.64,0,1.27,0,1.91,0,.39-.09.73-.57.75s-.65-.3-.61-.7c.09-1-.3-2.15.27-3.16A2.5,2.5,0,0,1,864.08,530.7Z" transform="translate(-675 -425)"/><path class="cls-36" d="M856.61,530.27l.49-.7c.49,1.3.13,2.64.22,4,0,.67,0,1.34,0,2a2.51,2.51,0,0,1,0,3.12c-1.61.5-2.34-.65-3.13-1.68a.32.32,0,0,1,0-.48,7.43,7.43,0,0,0,.69-2.4A19.06,19.06,0,0,1,856.61,530.27Z" transform="translate(-675 -425)"/><path class="cls-37" d="M835.46,544.65c-.23-.32-.44-.65-.68-.95a1.91,1.91,0,0,1-.15-2.4,16,16,0,0,1,2.3-3.13l0,0c.64,0,.61.51.69.9s0,.72.08,1.07.2.53.54.52.49-.23.53-.53a17.22,17.22,0,0,0,.05-1.9,1.44,1.44,0,0,1,.27-1l.21-.07.29.07a29.68,29.68,0,0,1,6,2.71c.33.17.76.33.65.86a10.24,10.24,0,0,0-.16,3.9c0,.34.28.77-.31.82s-.51-.37-.47-.69c.11-1-.44-1.22-1.3-1.16-.6,0-1.2,0-1.8,0-2.39,0-3.15.78-3.15,3.23v2A19.55,19.55,0,0,1,835.46,544.65Z" transform="translate(-675 -425)"/><path class="cls-21" d="M834.53,560.69c0-1.79,0-3.58,0-5.36,0-2.14.43-2.86,2.52-3.18,1.7-.26,2.18-1.23,2.26-2.69.79.66.39,1.58.52,2.39a20.74,20.74,0,0,0-.52,4.23,2.87,2.87,0,0,1-1.79,2.74A23.29,23.29,0,0,0,834.53,560.69Z" transform="translate(-675 -425)"/><path class="cls-38" d="M847.25,535.78a11.86,11.86,0,0,0,2.72-.18c.94-.24,1.43.17,1.37,1.19,0,.63,0,1.26,0,1.9a19.61,19.61,0,0,1-4.11,1.68c-.8.14-1.35-.08-1.4-1,.47-.9.16-1.87.23-2.81S846.4,535.36,847.25,535.78Z" transform="translate(-675 -425)"/><path class="cls-39" d="M865.73,543h.95c0,2.27,0,4.54,0,6.81,0,.7-.11,1.19-1,1.1Z" transform="translate(-675 -425)"/><path class="cls-40" d="M845.82,539.38l1.4,1c-.11.57-.57.39-.93.45a61.14,61.14,0,0,0-6.25-3.18c-.17-.07-.29-.26-.43-.39,1.72-.25,3,.8,4.46,1.45A3.8,3.8,0,0,0,845.82,539.38Z" transform="translate(-675 -425)"/><path class="cls-41" d="M857.33,538.66v-3.12a3.13,3.13,0,0,0,1.68.24V537C859,538.66,859,538.66,857.33,538.66Z" transform="translate(-675 -425)"/><path class="cls-42" d="M854.21,536.5c0,.16,0,.32,0,.48-.77.4-1.1,1.46-2.15,1.44.24-.57.51-1.14.72-1.73.14-.39.28-.85.65-.94S853.86,536.33,854.21,536.5Z" transform="translate(-675 -425)"/><path class="cls-43" d="M839.11,537.25a9,9,0,0,1,.19,3.42c0,.79-.68.59-1.17.62s-.91-.1-1-.76.23-1.59-.22-2.33A2.08,2.08,0,0,1,839.11,537.25Z" transform="translate(-675 -425)"/></svg>