<svg width="333" height="433" viewBox="0 0 333 433" fill="none" xmlns="http://www.w3.org/2000/svg">
<path d="M20 0H7.5C5.9 5.2 2.16667 6.83333 0.5 7V19C10.9 23.8 4.83333 30 0.5 32.5V44.5C10.5 49.3 4.66667 55.5 0.5 58V70C9.7 74.8 4.33333 80.6667 0.5 83V95.5C9.3 100.3 4.16667 105.833 0.5 108V120.5C10.1 126.5 4.5 132.333 0.5 134.5V146C9.7 152.8 4.33333 158.167 0.5 160V171C9.3 175.8 4.16667 182.667 0.5 185.5V197C8.9 203.8 4 208.167 0.5 209.5V222.5C9.7 227.7 4.33333 233.333 0.5 235.5V248.5C8.9 253.3 4 258.833 0.5 261V273C9.7 278.6 4.33333 284.333 0.5 286.5V298C9.3 304.4 4.16667 309 0.5 310.5V324C9.7 329.6 4.33333 334.667 0.5 336.5V350.5C10.5 355.3 4.66667 360.833 0.5 363V374C11.3 380.4 5 385.667 0.5 387.5V400C10.9 405.6 4.83333 411 0.5 413V424.5C5.3 426.5 7.16667 430.667 7.5 432.5H20C24 423.3 31 428.667 34 432.5H45.5C50.3 423.3 56.1667 428.667 58.5 432.5H71C75.8 424.1 81.6667 429 84 432.5H96C101.6 423.7 106.667 428.833 108.5 432.5H122C126.8 422.9 132.333 428.5 134.5 432.5H147.5C151.5 423.3 157.5 428.667 160 432.5H172C176.8 422.9 183 428.5 185.5 432.5H198C203.2 423.3 208.167 428.667 210 432.5H223.5C228.7 423.3 234 428.667 236 432.5H248.5C253.3 422.1 259.167 428.167 261.5 432.5H273.5C278.7 422.5 284.333 428.333 286.5 432.5H299.5C303.9 423.3 309.333 428.667 311.5 432.5H325C324.6 426.1 330.167 424.5 333 424.5V412.5C323.8 406.9 329.167 401.5 333 399.5V387C323 382.6 328.833 376.5 333 374V362C323.4 358 329 351.333 333 348.5V336.5C323.8 331.3 329.167 326 333 324V310.5C323.8 305.3 329.167 300 333 298V285.5C323 280.7 328.833 274.5 333 272V260C323 254.4 328.833 249.333 333 247.5V234.5C323 231.3 328.833 224.5 333 221.5V209.5C323 204.3 328.833 198.667 333 196.5V184C323 179.6 328.833 173.5 333 171V159C323.4 154.6 329 148.167 333 145.5V133C323.4 129 329 122.667 333 120V107.5C323 103.5 328.833 96.8333 333 94V82.5C323.8 77.3 329.167 71.3333 333 69V56.5C323.4 52.1 329 46 333 43.5V32C323 26 328.833 20.8333 333 19V6.5C328.2 8.1 324.667 2.83333 323.5 0H311C305.4 10 300 4.16667 298 0H286C280.8 10.8 275.5 4.5 273.5 0H260.5C254.9 9.2 249.833 3.83333 248 0H236C230 9.6 224.833 4 223 0H209.5C204.7 10.4 198.833 4.33333 196.5 0H184.5C178.1 10.8 173.167 4.5 171.5 0H159.5C154.3 10.4 148 4.33333 145.5 0H134C128.4 10 123.333 4.16667 121.5 0H108.5C102.5 12 97 5 95 0H83.5C77.5 12 71.6667 5 69.5 0H57.5C51.9 12 46.5 5 44.5 0H32C27.2 10.4 22 4.33333 20 0Z" fill="white"/>
<rect x="40" y="31.5" width="250" height="366" fill="#FCCA4A"/>
<path d="M65.032 327.08C64.936 331.616 68.848 335.336 73.36 335.264C76.312 335.264 78.808 333.848 80.152 331.616L78.232 330.2C77.104 331.952 75.472 332.936 73.384 332.936C70.144 332.936 67.672 330.44 67.672 327.08C67.672 323.72 70.144 321.224 73.384 321.224C75.472 321.224 77.104 322.208 78.232 323.96L80.152 322.544C78.784 320.312 76.264 318.896 73.36 318.896C68.848 318.824 64.936 322.544 65.032 327.08ZM82.1179 327.08C82.0219 331.616 85.8859 335.336 90.4219 335.264C94.9099 335.336 98.8459 331.616 98.7499 327.08C98.8459 322.544 94.9099 318.824 90.4219 318.896C85.9099 318.824 82.0459 322.544 82.1179 327.08ZM96.1339 327.056C96.1339 330.44 93.6859 332.936 90.4459 332.936C87.1579 332.936 84.7579 330.44 84.7579 327.056C84.7579 323.72 87.1579 321.224 90.4459 321.224C93.6859 321.224 96.1339 323.744 96.1339 327.056ZM115.989 318.896L109.341 327.752L102.693 318.896H101.805V335H104.349V325.04L108.909 331.016H109.773L114.309 325.064V335H116.853V318.896H115.989ZM135.02 318.896L128.372 327.752L121.724 318.896H120.836V335H123.38V325.04L127.94 331.016H128.804L133.34 325.064V335H135.884V318.896H135.02ZM139.699 328.592C139.699 332.768 142.435 335.264 146.227 335.264C149.947 335.264 152.707 332.768 152.707 328.592V319.16H150.163V328.76C150.163 331.448 148.531 332.936 146.227 332.936C143.899 332.936 142.243 331.448 142.243 328.76V319.16H139.699V328.592ZM167.043 319.16V329.84L157.419 318.896H156.531V335H159.075V324.272L168.723 335.264H169.587V319.16H167.043ZM173.594 335H176.138V319.16H173.594V335ZM179.173 327.08C179.077 331.616 182.989 335.336 187.501 335.264C190.453 335.264 192.949 333.848 194.293 331.616L192.373 330.2C191.245 331.952 189.613 332.936 187.525 332.936C184.285 332.936 181.813 330.44 181.813 327.08C181.813 323.72 184.285 321.224 187.525 321.224C189.613 321.224 191.245 322.208 192.373 323.96L194.293 322.544C192.925 320.312 190.405 318.896 187.501 318.896C182.989 318.824 179.077 322.544 179.173 327.08ZM207.733 335H210.469L203.485 318.896H202.621L195.637 335H198.349L199.477 332.36H206.605L207.733 335ZM205.693 330.176H200.389L203.053 323.624L205.693 330.176ZM214.907 335H217.451V321.44H222.803V319.16H209.579V321.44H214.907V335ZM225.18 335H227.724V319.16H225.18V335ZM230.759 327.08C230.663 331.616 234.527 335.336 239.063 335.264C243.551 335.336 247.487 331.616 247.391 327.08C247.487 322.544 243.551 318.824 239.063 318.896C234.551 318.824 230.687 322.544 230.759 327.08ZM244.775 327.056C244.775 330.44 242.327 332.936 239.087 332.936C235.799 332.936 233.399 330.44 233.399 327.056C233.399 323.72 235.799 321.224 239.087 321.224C242.327 321.224 244.775 323.744 244.775 327.056ZM260.957 319.16V329.84L251.333 318.896H250.445V335H252.989V324.272L262.637 335.264H263.501V319.16H260.957Z" fill="white"/>
<path d="M167 154.055C165.771 154.055 164.773 155.052 164.773 156.281C164.773 157.51 165.771 158.508 167 158.508C168.229 158.508 169.227 157.51 169.227 156.281C169.227 155.052 168.229 154.055 167 154.055Z" fill="white"/>
<path d="M130.039 194.133C131.268 194.133 132.266 193.135 132.266 191.906C132.266 190.677 131.268 189.68 130.039 189.68C128.81 189.68 127.812 190.677 127.812 191.906C127.812 193.135 128.81 194.133 130.039 194.133Z" fill="white"/>
<path d="M184.812 131.789C164.767 131.789 148.315 145.609 147.043 163.017C127.953 163.975 110 177.741 110 196.359C110 204.14 113.079 211.679 118.684 217.653C119.793 222.224 118.446 227.069 115.105 230.41C114.469 231.047 114.278 232.004 114.623 232.837C114.967 233.668 115.779 234.211 116.68 234.211C123.03 234.211 129.149 231.721 133.696 227.333C138.126 228.843 143.906 229.758 149.188 229.758C169.23 229.758 185.681 215.941 186.956 198.536C191.618 198.329 196.467 197.468 200.304 196.161C204.851 200.549 210.97 203.039 217.32 203.039C218.221 203.039 219.033 202.496 219.377 201.665C219.722 200.833 219.531 199.875 218.895 199.238C215.554 195.898 214.207 191.052 215.316 186.481C220.921 180.507 224 172.968 224 165.188C224 145.842 204.665 131.789 184.812 131.789ZM149.188 225.305C143.932 225.305 137.944 224.273 133.933 222.677C133.074 222.334 132.092 222.56 131.466 223.243C128.778 226.181 125.282 228.231 121.474 229.172C123.572 225.152 124.108 220.411 122.831 215.92C122.731 215.566 122.544 215.243 122.287 214.979C117.235 209.776 114.453 203.163 114.453 196.359C114.453 180.669 130.359 167.414 149.188 167.414C166.967 167.414 182.586 179.778 182.586 196.359C182.586 212.32 167.604 225.305 149.188 225.305ZM211.713 183.807C211.456 184.072 211.269 184.395 211.169 184.748C209.892 189.24 210.428 193.98 212.526 198.001C208.718 197.06 205.222 195.01 202.534 192.071C201.908 191.389 200.926 191.163 200.067 191.505C196.591 192.888 191.631 193.846 186.949 194.077C186.299 185.657 182.099 177.743 174.918 171.867H203.961C205.191 171.867 206.188 170.87 206.188 169.641C206.188 168.411 205.191 167.414 203.961 167.414H168.078C163.023 164.841 157.348 163.341 151.507 163.026C152.787 148.072 167.236 136.242 184.812 136.242C203.641 136.242 219.547 149.497 219.547 165.188C219.547 171.992 216.765 178.604 211.713 183.807Z" fill="white"/>
<path d="M167 189.68H138.945C137.715 189.68 136.719 190.676 136.719 191.906C136.719 193.136 137.715 194.133 138.945 194.133H167C168.23 194.133 169.227 193.136 169.227 191.906C169.227 190.676 168.23 189.68 167 189.68Z" fill="white"/>
<path d="M167 203.039H130.039C128.809 203.039 127.812 204.036 127.812 205.266C127.812 206.495 128.809 207.492 130.039 207.492H167C168.23 207.492 169.227 206.495 169.227 205.266C169.227 204.036 168.23 203.039 167 203.039Z" fill="white"/>
<path d="M203.961 154.055H175.906C174.676 154.055 173.68 155.051 173.68 156.281C173.68 157.511 174.676 158.508 175.906 158.508H203.961C205.191 158.508 206.188 157.511 206.188 156.281C206.188 155.051 205.191 154.055 203.961 154.055Z" fill="white"/>
</svg>
