<svg width="333" height="433" viewBox="0 0 333 433" fill="none" xmlns="http://www.w3.org/2000/svg">
<path d="M20 0H7.5C5.9 5.2 2.16667 6.83333 0.5 7V19C10.9 23.8 4.83333 30 0.5 32.5V44.5C10.5 49.3 4.66667 55.5 0.5 58V70C9.7 74.8 4.33333 80.6667 0.5 83V95.5C9.3 100.3 4.16667 105.833 0.5 108V120.5C10.1 126.5 4.5 132.333 0.5 134.5V146C9.7 152.8 4.33333 158.167 0.5 160V171C9.3 175.8 4.16667 182.667 0.5 185.5V197C8.9 203.8 4 208.167 0.5 209.5V222.5C9.7 227.7 4.33333 233.333 0.5 235.5V248.5C8.9 253.3 4 258.833 0.5 261V273C9.7 278.6 4.33333 284.333 0.5 286.5V298C9.3 304.4 4.16667 309 0.5 310.5V324C9.7 329.6 4.33333 334.667 0.5 336.5V350.5C10.5 355.3 4.66667 360.833 0.5 363V374C11.3 380.4 5 385.667 0.5 387.5V400C10.9 405.6 4.83333 411 0.5 413V424.5C5.3 426.5 7.16667 430.667 7.5 432.5H20C24 423.3 31 428.667 34 432.5H45.5C50.3 423.3 56.1667 428.667 58.5 432.5H71C75.8 424.1 81.6667 429 84 432.5H96C101.6 423.7 106.667 428.833 108.5 432.5H122C126.8 422.9 132.333 428.5 134.5 432.5H147.5C151.5 423.3 157.5 428.667 160 432.5H172C176.8 422.9 183 428.5 185.5 432.5H198C203.2 423.3 208.167 428.667 210 432.5H223.5C228.7 423.3 234 428.667 236 432.5H248.5C253.3 422.1 259.167 428.167 261.5 432.5H273.5C278.7 422.5 284.333 428.333 286.5 432.5H299.5C303.9 423.3 309.333 428.667 311.5 432.5H325C324.6 426.1 330.167 424.5 333 424.5V412.5C323.8 406.9 329.167 401.5 333 399.5V387C323 382.6 328.833 376.5 333 374V362C323.4 358 329 351.333 333 348.5V336.5C323.8 331.3 329.167 326 333 324V310.5C323.8 305.3 329.167 300 333 298V285.5C323 280.7 328.833 274.5 333 272V260C323 254.4 328.833 249.333 333 247.5V234.5C323 231.3 328.833 224.5 333 221.5V209.5C323 204.3 328.833 198.667 333 196.5V184C323 179.6 328.833 173.5 333 171V159C323.4 154.6 329 148.167 333 145.5V133C323.4 129 329 122.667 333 120V107.5C323 103.5 328.833 96.8333 333 94V82.5C323.8 77.3 329.167 71.3333 333 69V56.5C323.4 52.1 329 46 333 43.5V32C323 26 328.833 20.8333 333 19V6.5C328.2 8.1 324.667 2.83333 323.5 0H311C305.4 10 300 4.16667 298 0H286C280.8 10.8 275.5 4.5 273.5 0H260.5C254.9 9.2 249.833 3.83333 248 0H236C230 9.6 224.833 4 223 0H209.5C204.7 10.4 198.833 4.33333 196.5 0H184.5C178.1 10.8 173.167 4.5 171.5 0H159.5C154.3 10.4 148 4.33333 145.5 0H134C128.4 10 123.333 4.16667 121.5 0H108.5C102.5 12 97 5 95 0H83.5C77.5 12 71.6667 5 69.5 0H57.5C51.9 12 46.5 5 44.5 0H32C27.2 10.4 22 4.33333 20 0Z" fill="white"/>
<rect x="40" y="31.5" width="250" height="366" fill="#C35F83"/>
<path d="M125.992 335H130.96C136.12 335 139.576 331.664 139.576 327.056C139.576 322.376 136.144 319.16 130.96 319.16H125.992V335ZM128.536 332.72V321.464H130.936C134.632 321.464 136.96 323.696 136.96 327.056C136.96 330.368 134.608 332.72 130.936 332.72H128.536ZM142.609 335H153.313V332.72H145.153V327.704H151.081V325.496H145.153V321.44H153.025V319.16H142.609V335ZM155.145 331.832C156.369 333.968 158.529 335.264 161.121 335.264C164.169 335.264 166.425 333.44 166.425 330.68C166.425 328.592 165.201 327.344 162.633 326.168L160.857 325.352C159.297 324.56 158.745 324.344 158.649 323.096C158.649 321.848 159.705 321.176 161.049 321.176C162.393 321.176 163.545 321.848 164.385 323.096L166.161 321.728C165.177 320.024 163.281 318.896 161.049 318.896C158.313 318.896 156.057 320.6 156.057 323.192C156.057 325.304 157.449 326.528 159.753 327.584L161.505 328.4C163.161 329.168 163.833 329.648 163.833 330.776C163.833 332.12 162.729 332.984 161.097 332.984C159.273 332.984 158.001 332 156.945 330.464L155.145 331.832ZM169.68 335H172.224V319.16H169.68V335ZM175.259 327.08C175.187 331.616 178.979 335.336 183.611 335.264C186.803 335.264 189.587 333.608 191.003 331.088V326.624H183.587V328.88H188.459V330.584C187.475 332.096 185.819 332.984 183.731 332.984C180.323 332.984 177.899 330.44 177.899 327.056C177.899 323.72 180.251 321.224 183.587 321.224C185.555 321.224 187.139 322.064 188.315 323.72L190.163 322.208C188.651 320.096 186.371 318.896 183.611 318.896C179.027 318.824 175.163 322.544 175.259 327.08ZM204.637 319.16V329.84L195.013 318.896H194.125V335H196.669V324.272L206.317 335.264H207.181V319.16H204.637Z" fill="white"/>
<g clip-path="url(#clip0)">
<path d="M208.36 198.6C208.963 195.397 208.948 192.107 208.314 188.91L217.016 167.909C217.017 167.895 217.017 167.881 217.016 167.867C218.427 164.007 220.493 160.419 223.125 157.262C223.78 156.57 224.043 155.596 223.826 154.668L220.258 139.259C220.215 139.098 220.151 138.943 220.068 138.799C220.053 138.771 220.047 138.737 220.032 138.71C220.017 138.683 219.95 138.619 219.912 138.569C219.834 138.456 219.744 138.351 219.644 138.256C219.578 138.209 219.509 138.168 219.437 138.131C219.344 138.062 219.246 138.003 219.143 137.952C218.999 137.898 218.85 137.861 218.698 137.844C218.654 137.844 218.616 137.815 218.573 137.811C218.208 137.787 217.845 137.868 217.526 138.045C217.497 138.06 217.463 138.066 217.434 138.083H217.415L204 146.456C203.187 146.959 202.683 147.838 202.658 148.793C202.285 152.896 201.205 156.903 199.464 160.636V160.657L195.115 171.17C192.981 170.035 190.695 169.21 188.328 168.719C189.224 162.534 189.554 156.28 189.313 150.036C192.849 145.792 194.547 140.313 194.028 134.813C192.841 123.74 182.834 115.743 182.406 115.407C181.764 114.901 180.869 114.863 180.186 115.312C179.503 115.762 179.184 116.598 179.395 117.388C180.373 121.063 179.526 124.941 172.298 132.915C169.051 136.051 168.021 140.838 169.693 145.031C170.332 146.635 171.248 148.114 172.399 149.401C171.939 152.337 171.578 155.117 171.329 157.824C170.9 162.302 170.79 166.805 170.998 171.299C169.303 172.218 167.717 173.324 166.267 174.595L157.052 135.189C157.052 135.149 157.014 135.121 157.003 135.085C156.972 134.958 156.928 134.835 156.87 134.718L147.457 117.335C146.515 115.595 144.525 114.701 142.599 115.152C140.673 115.603 139.287 117.288 139.215 119.265L138.501 139.016C138.501 139.158 138.517 139.301 138.548 139.44C138.548 139.47 138.548 139.497 138.548 139.525L147.95 179.647C146.466 179.713 144.994 179.933 143.557 180.303L133.215 155.327C132.386 153.418 130.186 152.517 128.256 153.296L112.45 159.84C110.515 160.647 109.596 162.865 110.392 164.805L124.418 198.64C116.198 199.071 109.817 205.972 110.029 214.201C110.241 222.43 116.969 228.993 125.201 229H208.801C214.231 228.921 219.207 225.951 221.854 221.209C224.501 216.467 224.417 210.673 221.634 206.009C218.85 201.346 213.79 198.521 208.36 198.6ZM206.424 149.42L214.389 144.45L211.569 151.26C211.167 152.229 211.627 153.341 212.597 153.743C213.567 154.145 214.678 153.685 215.08 152.715L217.9 145.905L220.011 155.05C217.752 157.805 215.897 160.868 214.501 164.145C212.52 165.064 210.245 165.111 208.228 164.277C206.21 163.442 204.633 161.802 203.88 159.753C205.214 156.447 206.071 152.968 206.424 149.42ZM202.054 164.337C203.311 165.874 204.942 167.062 206.791 167.786C208.26 168.418 209.84 168.751 211.44 168.766C211.825 168.765 212.209 168.741 212.591 168.696L206.528 183.326C204.713 179.323 201.905 175.851 198.37 173.239L202.054 164.337ZM176.024 150.767L185.57 151.351C185.628 153.125 185.608 154.961 185.549 156.825C182.369 157.052 179.173 156.898 176.03 156.365C175.79 156.331 175.557 156.304 175.319 156.272C175.509 154.482 175.741 152.669 176.02 150.767H176.024ZM175.118 135.467C180.162 129.902 182.777 125.621 183.385 121.597C187.011 125.327 189.404 130.081 190.242 135.216C190.641 139.686 189.259 144.133 186.396 147.589C182.643 147.361 178.931 147.133 175.26 146.905C173.683 145.43 172.775 143.376 172.748 141.217C172.72 139.058 173.575 136.981 175.114 135.467H175.118ZM174.973 160.058L175.524 160.131C177.973 160.509 180.444 160.719 182.921 160.76C183.708 160.76 184.536 160.697 185.366 160.632C185.193 163.078 184.91 165.631 184.551 168.27C184.082 168.246 183.622 168.2 183.151 168.2C180.282 168.205 177.435 168.695 174.73 169.65C174.642 166.451 174.722 163.249 174.969 160.058H174.973ZM160.277 182.277L154.841 159.122C154.587 158.117 153.575 157.501 152.566 157.738C151.557 157.974 150.923 158.975 151.142 159.988L156.026 180.829C154.683 180.349 153.296 180.003 151.884 179.798L143.545 144.211C144.714 144.742 145.982 145.018 147.266 145.02C147.385 145.02 147.513 145.003 147.634 144.997L148.977 150.733C149.122 151.405 149.618 151.946 150.274 152.148C150.931 152.351 151.645 152.184 152.143 151.711C152.641 151.238 152.845 150.533 152.677 149.867L151.332 144.127C152.621 143.556 153.758 142.691 154.651 141.6L163.129 177.85C162.028 179.223 161.072 180.707 160.277 182.277ZM148.668 141.047C146.238 141.518 143.757 140.525 142.324 138.507L142.565 131.815C143.226 131.938 143.897 132.002 144.569 132.005C145.219 132.008 145.867 131.936 146.5 131.79C147.782 131.454 148.981 130.857 150.022 130.038L153.222 135.944C152.841 138.394 151.058 140.393 148.668 141.051V141.047ZM143.464 118.851C143.722 118.791 143.99 118.911 144.117 119.144L148.191 126.677C147.456 127.342 146.579 127.83 145.626 128.102C144.652 128.281 143.65 128.234 142.698 127.964L143.008 119.402C143.018 119.137 143.205 118.911 143.464 118.851ZM129.713 156.8L131.165 160.307L124.135 163.218C123.302 163.568 122.83 164.457 123.008 165.343C123.185 166.229 123.963 166.868 124.866 166.87C125.116 166.869 125.363 166.82 125.594 166.726L132.624 163.813L134.078 167.324L130.561 168.781C129.723 169.128 129.246 170.019 129.424 170.909C129.602 171.798 130.383 172.438 131.29 172.437C131.539 172.436 131.786 172.387 132.016 172.293L135.533 170.835L136.987 174.346L129.951 177.263C129.113 177.61 128.637 178.501 128.814 179.39C128.992 180.28 129.773 180.92 130.68 180.919C130.929 180.918 131.176 180.869 131.406 180.774L138.436 177.863L139.973 181.574C133.782 184.4 129.242 189.926 127.671 196.548L113.9 163.344L129.713 156.8ZM208.801 225.2H125.201C118.905 225.2 113.801 220.096 113.801 213.8C113.801 207.504 118.905 202.4 125.201 202.4C126.302 202.396 127.397 202.555 128.452 202.871C129.021 203.043 129.639 202.938 130.12 202.588C130.601 202.238 130.89 201.682 130.901 201.087C131.036 194.316 134.95 188.19 141.039 185.222C147.127 182.255 154.364 182.945 159.781 187.01C160.26 187.366 160.878 187.477 161.45 187.309C162.023 187.141 162.483 186.713 162.694 186.155C166.406 176.262 176.665 170.443 187.061 172.334C197.457 174.224 205.01 183.284 205.001 193.85C205.005 196.023 204.681 198.184 204.041 200.261C203.842 200.907 204 201.61 204.458 202.108C204.916 202.606 205.604 202.822 206.264 202.677C207.097 202.494 207.948 202.401 208.801 202.4C215.097 202.4 220.201 207.504 220.201 213.8C220.201 220.096 215.097 225.2 208.801 225.2Z" fill="white"/>
<path d="M183.501 144.83C184.098 144.832 184.661 144.554 185.021 144.08C187.394 140.869 188.31 136.811 187.548 132.892C187.386 132.222 186.874 131.693 186.21 131.508C185.546 131.324 184.834 131.514 184.35 132.004C183.865 132.495 183.685 133.209 183.878 133.871C184.333 136.655 183.654 139.506 181.993 141.786C181.561 142.362 181.492 143.132 181.813 143.776C182.135 144.42 182.793 144.826 183.513 144.826L183.501 144.83Z" fill="white"/>
<path d="M181.003 202.4C179.59 202.404 178.197 202.729 176.928 203.35C173.51 198.673 167.128 197.303 162.091 200.165C157.055 203.027 154.965 209.211 157.234 214.541C157.533 215.242 158.221 215.696 158.982 215.696C159.238 215.697 159.492 215.645 159.727 215.544C160.19 215.347 160.557 214.973 160.745 214.506C160.933 214.038 160.928 213.515 160.73 213.052C160.316 212.087 160.103 211.049 160.103 210C160.103 205.803 163.506 202.4 167.703 202.4C170.651 202.385 173.336 204.094 174.572 206.77C174.613 206.832 174.657 206.892 174.705 206.949C174.735 207.014 174.768 207.077 174.805 207.139C174.839 207.181 174.889 207.2 174.927 207.239C175.016 207.332 175.115 207.415 175.221 207.486C175.316 207.559 175.418 207.623 175.525 207.676C175.636 207.723 175.75 207.758 175.867 207.783C175.984 207.813 176.104 207.832 176.225 207.838C176.471 207.836 176.716 207.795 176.95 207.716C177.001 207.707 177.051 207.695 177.1 207.68C177.162 207.64 177.221 207.597 177.277 207.549C177.346 207.519 177.412 207.484 177.477 207.447C178.475 206.639 179.72 206.199 181.003 206.2C183.225 206.204 185.242 207.498 186.171 209.516C186.607 210.471 187.734 210.892 188.689 210.456C189.643 210.021 190.065 208.894 189.629 207.939C188.082 204.566 184.713 202.403 181.003 202.4Z" fill="white"/>
<path d="M143.6 189.197C143.313 189.29 136.6 191.612 136.6 198.6C136.6 199.649 137.451 200.5 138.5 200.5C139.549 200.5 140.4 199.649 140.4 198.6C140.555 195.95 142.299 193.657 144.812 192.799C145.809 192.465 146.346 191.385 146.011 190.388C145.676 189.391 144.597 188.855 143.6 189.189V189.197Z" fill="white"/>
<path d="M170.338 187.143C170.489 187.181 170.644 187.201 170.8 187.2C171.671 187.199 172.429 186.606 172.641 185.762C173.516 182.214 176.656 179.69 180.309 179.6C181.359 179.597 182.207 178.745 182.205 177.695C182.202 176.646 181.349 175.797 180.3 175.8C174.9 175.872 170.233 179.59 168.957 184.838C168.702 185.856 169.32 186.888 170.338 187.143Z" fill="white"/>
</g>
<defs>
<clipPath id="clip0">
<rect width="114" height="114" fill="white" transform="translate(110 115)"/>
</clipPath>
</defs>
</svg>
