<svg width="333" height="433" viewBox="0 0 333 433" fill="none" xmlns="http://www.w3.org/2000/svg">
<path d="M19.5 0.5H7C5.4 5.7 1.66667 7.33333 0 7.5V19.5C10.4 24.3 4.33333 30.5 0 33V45C10 49.8 4.16667 56 0 58.5V70.5C9.2 75.3 3.83333 81.1667 0 83.5V96C8.8 100.8 3.66667 106.333 0 108.5V121C9.6 127 4 132.833 0 135V146.5C9.2 153.3 3.83333 158.667 0 160.5V171.5C8.8 176.3 3.66667 183.167 0 186V197.5C8.4 204.3 3.5 208.667 0 210V223C9.2 228.2 3.83333 233.833 0 236V249C8.4 253.8 3.5 259.333 0 261.5V273.5C9.2 279.1 3.83333 284.833 0 287V298.5C8.8 304.9 3.66667 309.5 0 311V324.5C9.2 330.1 3.83333 335.167 0 337V351C10 355.8 4.16667 361.333 0 363.5V374.5C10.8 380.9 4.5 386.167 0 388V400.5C10.4 406.1 4.33333 411.5 0 413.5V425C4.8 427 6.66667 431.167 7 433H19.5C23.5 423.8 30.5 429.167 33.5 433H45C49.8 423.8 55.6667 429.167 58 433H70.5C75.3 424.6 81.1667 429.5 83.5 433H95.5C101.1 424.2 106.167 429.333 108 433H121.5C126.3 423.4 131.833 429 134 433H147C151 423.8 157 429.167 159.5 433H171.5C176.3 423.4 182.5 429 185 433H197.5C202.7 423.8 207.667 429.167 209.5 433H223C228.2 423.8 233.5 429.167 235.5 433H248C252.8 422.6 258.667 428.667 261 433H273C278.2 423 283.833 428.833 286 433H299C303.4 423.8 308.833 429.167 311 433H324.5C324.1 426.6 329.667 425 332.5 425V413C323.3 407.4 328.667 402 332.5 400V387.5C322.5 383.1 328.333 377 332.5 374.5V362.5C322.9 358.5 328.5 351.833 332.5 349V337C323.3 331.8 328.667 326.5 332.5 324.5V311C323.3 305.8 328.667 300.5 332.5 298.5V286C322.5 281.2 328.333 275 332.5 272.5V260.5C322.5 254.9 328.333 249.833 332.5 248V235C322.5 231.8 328.333 225 332.5 222V210C322.5 204.8 328.333 199.167 332.5 197V184.5C322.5 180.1 328.333 174 332.5 171.5V159.5C322.9 155.1 328.5 148.667 332.5 146V133.5C322.9 129.5 328.5 123.167 332.5 120.5V108C322.5 104 328.333 97.3333 332.5 94.5V83C323.3 77.8 328.667 71.8333 332.5 69.5V57C322.9 52.6 328.5 46.5 332.5 44V32.5C322.5 26.5 328.333 21.3333 332.5 19.5V7C327.7 8.6 324.167 3.33333 323 0.5H310.5C304.9 10.5 299.5 4.66667 297.5 0.5H285.5C280.3 11.3 275 5 273 0.5H260C254.4 9.7 249.333 4.33333 247.5 0.5H235.5C229.5 10.1 224.333 4.5 222.5 0.5H209C204.2 10.9 198.333 4.83333 196 0.5H184C177.6 11.3 172.667 5 171 0.5H159C153.8 10.9 147.5 4.83333 145 0.5H133.5C127.9 10.5 122.833 4.66667 121 0.5H108C102 12.5 96.5 5.5 94.5 0.5H83C77 12.5 71.1667 5.5 69 0.5H57C51.4 12.5 46 5.5 44 0.5H31.5C26.7 10.9 21.5 4.83333 19.5 0.5Z" fill="white"/>
<rect x="39.5" y="32" width="250" height="366" fill="#7F5FC3"/>
<path d="M45.812 411H47.18L43.688 402.948H43.256L39.764 411H41.12L41.684 409.68H45.248L45.812 411ZM44.792 408.588H42.14L43.472 405.312L44.792 408.588ZM48.0526 407.796C48.0526 409.884 49.4206 411.132 51.3166 411.132C53.1766 411.132 54.5566 409.884 54.5566 407.796V403.08H53.2846V407.88C53.2846 409.224 52.4686 409.968 51.3166 409.968C50.1526 409.968 49.3246 409.224 49.3246 407.88V403.08H48.0526V407.796ZM56.4687 411H58.9527C61.5327 411 63.2607 409.332 63.2607 407.028C63.2607 404.688 61.5447 403.08 58.9527 403.08H56.4687V411ZM57.7407 409.86V404.232H58.9407C60.7887 404.232 61.9527 405.348 61.9527 407.028C61.9527 408.684 60.7767 409.86 58.9407 409.86H57.7407ZM64.7773 411H66.0493V403.08H64.7773V411ZM67.5668 407.04C67.5188 409.308 69.4508 411.168 71.7188 411.132C73.9628 411.168 75.9308 409.308 75.8828 407.04C75.9308 404.772 73.9628 402.912 71.7188 402.948C69.4628 402.912 67.5308 404.772 67.5668 407.04ZM74.5748 407.028C74.5748 408.72 73.3508 409.968 71.7308 409.968C70.0868 409.968 68.8868 408.72 68.8868 407.028C68.8868 405.36 70.0868 404.112 71.7308 404.112C73.3508 404.112 74.5748 405.372 74.5748 407.028ZM82.4317 403.08L80.1517 408.588L77.8717 403.08H76.4437L79.9357 411.132H80.3677L83.8597 403.08H82.4317ZM85.121 411H86.393V403.08H85.121V411ZM87.8265 409.416C88.4385 410.484 89.5185 411.132 90.8145 411.132C92.3385 411.132 93.4665 410.22 93.4665 408.84C93.4665 407.796 92.8545 407.172 91.5705 406.584L90.6825 406.176C89.9025 405.78 89.6265 405.672 89.5785 405.048C89.5785 404.424 90.1065 404.088 90.7785 404.088C91.4505 404.088 92.0265 404.424 92.4465 405.048L93.3345 404.364C92.8425 403.512 91.8945 402.948 90.7785 402.948C89.4105 402.948 88.2825 403.8 88.2825 405.096C88.2825 406.152 88.9785 406.764 90.1305 407.292L91.0065 407.7C91.8345 408.084 92.1705 408.324 92.1705 408.888C92.1705 409.56 91.6185 409.992 90.8025 409.992C89.8905 409.992 89.2545 409.5 88.7265 408.732L87.8265 409.416ZM95.0097 407.796C95.0097 409.884 96.3777 411.132 98.2737 411.132C100.134 411.132 101.514 409.884 101.514 407.796V403.08H100.242V407.88C100.242 409.224 99.4257 409.968 98.2737 409.968C97.1097 409.968 96.2817 409.224 96.2817 407.88V403.08H95.0097V407.796ZM103.426 411H108.778V409.86H104.698V407.352H107.662V406.248H104.698V404.22H108.634V403.08H103.426V411ZM110.258 411H115.154V409.86H111.53V403.08H110.258V411Z" fill="#7F5FC3"/>
<path d="M230.588 402.948L227.264 407.376L223.94 402.948H223.496V411H224.768V406.02L227.048 409.008H227.48L229.748 406.032V411H231.02V402.948H230.588ZM241.713 407.316C241.713 405.912 240.885 404.976 239.529 404.976C238.701 404.976 237.969 405.336 237.537 405.9C237.189 405.324 236.565 404.976 235.749 404.976C235.041 404.976 234.465 405.228 234.045 405.66V405.108H232.869V411H234.129V407.496C234.129 406.68 234.657 406.128 235.425 406.128C236.181 406.128 236.661 406.68 236.661 407.496V411H237.921V407.436C237.921 406.68 238.449 406.128 239.217 406.128C239.973 406.128 240.441 406.668 240.441 407.496V411H241.713V407.316ZM243.463 411H244.723V405.108H243.463V411ZM243.235 402.912C243.235 403.38 243.619 403.74 244.099 403.74C244.567 403.74 244.951 403.38 244.951 402.912C244.951 402.444 244.567 402.072 244.099 402.072C243.619 402.072 243.235 402.444 243.235 402.912ZM256.361 407.592C256.409 405.144 254.177 403.02 251.405 403.068C248.525 403.02 246.101 405.228 246.149 408.096C246.101 410.88 248.465 413.136 251.201 413.088C251.861 413.088 252.473 412.98 253.025 412.764L252.821 411.852C252.305 412.008 251.813 412.08 251.321 412.08C249.029 412.116 247.193 410.388 247.229 408.072C247.193 405.78 249.041 404.04 251.429 404.076C253.733 404.076 255.293 405.576 255.293 407.592C255.293 408.828 254.693 409.488 253.721 409.572V405.684H252.617V406.308C252.269 405.84 251.657 405.576 250.973 405.576C249.581 405.576 248.561 406.68 248.561 408.156C248.561 409.632 249.593 410.736 250.961 410.736C251.681 410.736 252.317 410.448 252.665 409.92V410.604H253.109C254.081 410.604 254.873 410.34 255.461 409.824C256.061 409.308 256.361 408.564 256.361 407.592ZM252.545 408.144C252.545 409.116 251.921 409.644 251.189 409.644C250.385 409.644 249.785 409.032 249.785 408.156C249.785 407.256 250.397 406.656 251.201 406.656C251.957 406.656 252.545 407.172 252.545 408.144ZM263.903 408.048C263.903 406.308 262.679 404.976 261.011 404.976C260.147 404.976 259.391 405.324 258.959 405.936V405.108H257.783V413.16H259.043V410.28C259.511 410.82 260.207 411.132 261.011 411.132C262.679 411.132 263.903 409.812 263.903 408.048ZM262.607 408.06C262.607 409.188 261.815 409.98 260.807 409.98C259.883 409.98 259.031 409.344 259.031 408.048C259.031 406.764 259.883 406.128 260.807 406.128C261.827 406.128 262.607 406.932 262.607 408.06ZM264.981 408.048C264.945 409.716 266.397 411.168 268.089 411.132C269.805 411.168 271.257 409.716 271.221 408.048C271.257 406.38 269.805 404.94 268.089 404.976C266.397 404.952 264.945 406.356 264.981 408.048ZM269.925 408.06C269.925 409.128 269.133 409.968 268.089 409.968C267.057 409.968 266.265 409.152 266.265 408.06C266.265 406.968 267.057 406.128 268.101 406.128C269.121 406.128 269.925 406.968 269.925 408.06ZM272.114 409.992C272.642 410.676 273.482 411.132 274.49 411.132C275.114 411.132 275.63 410.976 276.05 410.664C276.47 410.34 276.674 409.896 276.674 409.332C276.674 408.504 276.182 408.024 275.066 407.556L274.502 407.328C273.926 407.088 273.722 406.932 273.722 406.632C273.722 406.26 274.034 406.068 274.526 406.068C275.042 406.068 275.534 406.284 275.906 406.668L276.59 405.888C276.074 405.276 275.402 404.976 274.55 404.976C273.35 404.976 272.474 405.624 272.474 406.68C272.474 407.508 272.966 407.964 274.01 408.396L274.61 408.648C275.186 408.888 275.438 409.032 275.438 409.38C275.438 409.812 275.03 410.04 274.49 410.04C273.866 410.04 273.35 409.74 272.834 409.2L272.114 409.992ZM281.631 409.932C281.283 409.968 281.031 409.992 280.851 409.992C280.083 409.992 279.687 409.728 279.687 408.972V406.2H281.439V405.108H279.687V403.56H278.415V405.108H277.455V406.2H278.415V409.08C278.415 410.46 279.231 411.132 280.587 411.132C280.887 411.132 281.235 411.084 281.631 411V409.932ZM288.095 408.468C288.155 408.192 288.191 407.928 288.191 407.676C288.191 406.14 287.027 404.976 285.467 404.976C283.799 404.94 282.383 406.368 282.419 408.06C282.419 409.8 283.787 411.132 285.587 411.132C286.487 411.132 287.267 410.82 287.939 410.184L287.339 409.32C286.811 409.788 286.235 410.016 285.623 410.016C284.615 410.016 283.859 409.428 283.703 408.468H288.095ZM283.727 407.484C283.919 406.608 284.591 406.044 285.419 406.044C286.247 406.044 286.919 406.584 286.931 407.484H283.727Z" fill="#7F5FC3"/>
<path d="M218.579 200.724H114.04C112.728 200.724 111.664 201.788 111.664 203.1V260.121C111.664 266.669 116.991 272 123.543 272H209.075C215.628 272 220.954 266.669 220.954 260.121V203.1C220.955 201.788 219.89 200.724 218.579 200.724ZM216.203 260.121C216.203 264.05 213.005 267.248 209.075 267.248H123.543C119.614 267.248 116.416 264.05 116.416 260.121V205.475H216.203V260.121Z" fill="white"/>
<path d="M220.879 178.737L216.835 163.394C215.903 159.663 212.093 157.321 208.315 158.176L112.586 180.89C110.704 181.317 109.112 182.462 108.1 184.107C107.088 185.751 106.789 187.689 107.264 189.571L111.74 207.266C112.006 208.34 112.975 209.058 114.04 209.058C114.23 209.058 114.425 209.039 114.629 208.987C115.897 208.668 116.667 207.376 116.344 206.102L116.083 205.071L219.106 181.664C219.733 181.517 220.279 181.127 220.612 180.576C220.95 180.025 221.04 179.36 220.879 178.737ZM114.919 200.462L111.868 188.416C111.712 187.789 111.816 187.143 112.149 186.592C112.486 186.045 113.018 185.665 113.665 185.513L209.393 162.804C209.565 162.762 209.74 162.743 209.911 162.743C210.976 162.743 211.959 163.474 212.23 164.572L215.656 177.568L114.919 200.462Z" fill="white"/>
<path d="M134.111 200.971C132.933 200.396 131.517 200.861 130.918 202.035L121.415 221.042C120.83 222.216 121.305 223.641 122.479 224.231C122.826 224.402 123.187 224.482 123.544 224.482C124.413 224.482 125.254 224.002 125.672 223.166L135.176 204.159C135.76 202.985 135.285 201.56 134.111 200.971Z" fill="white"/>
<path d="M157.866 200.971C156.692 200.396 155.266 200.861 154.677 202.035L145.173 221.042C144.589 222.216 145.064 223.641 146.238 224.231C146.585 224.402 146.946 224.482 147.302 224.482C148.172 224.482 149.013 224.002 149.426 223.166L158.93 204.159C159.514 202.985 159.039 201.56 157.866 200.971Z" fill="white"/>
<path d="M181.624 200.971C180.455 200.396 179.03 200.861 178.436 202.035L168.932 221.042C168.348 222.216 168.823 223.641 169.997 224.231C170.343 224.402 170.705 224.482 171.061 224.482C171.931 224.482 172.772 224.002 173.185 223.166L182.689 204.159C183.273 202.985 182.798 201.56 181.624 200.971Z" fill="white"/>
<path d="M205.383 200.971C204.205 200.396 202.789 200.861 202.195 202.035L192.691 221.042C192.107 222.216 192.582 223.641 193.755 224.231C194.102 224.402 194.464 224.482 194.82 224.482C195.69 224.482 196.531 224.002 196.944 223.166L206.448 204.159C207.032 202.985 206.557 201.56 205.383 200.971Z" fill="white"/>
<path d="M218.579 219.73H114.04C112.728 219.73 111.664 220.795 111.664 222.106C111.664 223.418 112.728 224.482 114.04 224.482H218.579C219.895 224.482 220.955 223.418 220.955 222.106C220.955 220.795 219.89 219.73 218.579 219.73Z" fill="white"/>
<path d="M137.015 196.575L120.65 180.21C119.723 179.283 118.217 179.283 117.29 180.21C116.363 181.137 116.363 182.643 117.29 183.57L133.655 199.939C134.121 200.4 134.729 200.633 135.337 200.633C135.946 200.633 136.554 200.4 137.015 199.935C137.941 199.008 137.941 197.502 137.015 196.575Z" fill="white"/>
<path d="M160.26 191.296L143.881 174.931C142.955 174.004 141.448 174.004 140.522 174.931C139.595 175.857 139.595 177.364 140.522 178.29L156.896 194.655C157.362 195.116 157.97 195.349 158.578 195.349C159.187 195.349 159.795 195.117 160.26 194.655C161.187 193.729 161.187 192.222 160.26 191.296Z" fill="white"/>
<path d="M183.487 186.017L167.136 169.647C166.21 168.721 164.703 168.721 163.777 169.647C162.85 170.574 162.85 172.08 163.777 173.007L180.127 189.376C180.593 189.837 181.201 190.07 181.81 190.07C182.418 190.07 183.026 189.842 183.487 189.376C184.414 188.45 184.414 186.943 183.487 186.017Z" fill="white"/>
<path d="M206.704 180.742L190.348 164.373C189.422 163.446 187.915 163.446 186.989 164.373C186.062 165.299 186.062 166.806 186.989 167.732L203.344 184.102C203.81 184.563 204.418 184.796 205.026 184.796C205.635 184.796 206.243 184.563 206.704 184.102C207.631 183.175 207.631 181.669 206.704 180.742Z" fill="white"/>
</svg>
