<svg width="333" height="433" viewBox="0 0 333 433" fill="none" xmlns="http://www.w3.org/2000/svg">
<path d="M19.5 0.5H7C5.4 5.7 1.66667 7.33333 0 7.5V19.5C10.4 24.3 4.33333 30.5 0 33V45C10 49.8 4.16667 56 0 58.5V70.5C9.2 75.3 3.83333 81.1667 0 83.5V96C8.8 100.8 3.66667 106.333 0 108.5V121C9.6 127 4 132.833 0 135V146.5C9.2 153.3 3.83333 158.667 0 160.5V171.5C8.8 176.3 3.66667 183.167 0 186V197.5C8.4 204.3 3.5 208.667 0 210V223C9.2 228.2 3.83333 233.833 0 236V249C8.4 253.8 3.5 259.333 0 261.5V273.5C9.2 279.1 3.83333 284.833 0 287V298.5C8.8 304.9 3.66667 309.5 0 311V324.5C9.2 330.1 3.83333 335.167 0 337V351C10 355.8 4.16667 361.333 0 363.5V374.5C10.8 380.9 4.5 386.167 0 388V400.5C10.4 406.1 4.33333 411.5 0 413.5V425C4.8 427 6.66667 431.167 7 433H19.5C23.5 423.8 30.5 429.167 33.5 433H45C49.8 423.8 55.6667 429.167 58 433H70.5C75.3 424.6 81.1667 429.5 83.5 433H95.5C101.1 424.2 106.167 429.333 108 433H121.5C126.3 423.4 131.833 429 134 433H147C151 423.8 157 429.167 159.5 433H171.5C176.3 423.4 182.5 429 185 433H197.5C202.7 423.8 207.667 429.167 209.5 433H223C228.2 423.8 233.5 429.167 235.5 433H248C252.8 422.6 258.667 428.667 261 433H273C278.2 423 283.833 428.833 286 433H299C303.4 423.8 308.833 429.167 311 433H324.5C324.1 426.6 329.667 425 332.5 425V413C323.3 407.4 328.667 402 332.5 400V387.5C322.5 383.1 328.333 377 332.5 374.5V362.5C322.9 358.5 328.5 351.833 332.5 349V337C323.3 331.8 328.667 326.5 332.5 324.5V311C323.3 305.8 328.667 300.5 332.5 298.5V286C322.5 281.2 328.333 275 332.5 272.5V260.5C322.5 254.9 328.333 249.833 332.5 248V235C322.5 231.8 328.333 225 332.5 222V210C322.5 204.8 328.333 199.167 332.5 197V184.5C322.5 180.1 328.333 174 332.5 171.5V159.5C322.9 155.1 328.5 148.667 332.5 146V133.5C322.9 129.5 328.5 123.167 332.5 120.5V108C322.5 104 328.333 97.3333 332.5 94.5V83C323.3 77.8 328.667 71.8333 332.5 69.5V57C322.9 52.6 328.5 46.5 332.5 44V32.5C322.5 26.5 328.333 21.3333 332.5 19.5V7C327.7 8.6 324.167 3.33333 323 0.5H310.5C304.9 10.5 299.5 4.66667 297.5 0.5H285.5C280.3 11.3 275 5 273 0.5H260C254.4 9.7 249.333 4.33333 247.5 0.5H235.5C229.5 10.1 224.333 4.5 222.5 0.5H209C204.2 10.9 198.333 4.83333 196 0.5H184C177.6 11.3 172.667 5 171 0.5H159C153.8 10.9 147.5 4.83333 145 0.5H133.5C127.9 10.5 122.833 4.66667 121 0.5H108C102 12.5 96.5 5.5 94.5 0.5H83C77 12.5 71.1667 5.5 69 0.5H57C51.4 12.5 46 5.5 44 0.5H31.5C26.7 10.9 21.5 4.83333 19.5 0.5Z" fill="white"/>
<rect x="39.5" y="32" width="250" height="366" fill="#7F5FC3"/>
<path d="M102.624 334H105.36L98.376 317.896H97.512L90.528 334H93.24L94.368 331.36H101.496L102.624 334ZM100.584 329.176H95.28L97.944 322.624L100.584 329.176ZM107.105 327.592C107.105 331.768 109.841 334.264 113.633 334.264C117.353 334.264 120.113 331.768 120.113 327.592V318.16H117.569V327.76C117.569 330.448 115.937 331.936 113.633 331.936C111.305 331.936 109.649 330.448 109.649 327.76V318.16H107.105V327.592ZM123.937 334H128.905C134.065 334 137.521 330.664 137.521 326.056C137.521 321.376 134.089 318.16 128.905 318.16H123.937V334ZM126.481 331.72V320.464H128.881C132.577 320.464 134.905 322.696 134.905 326.056C134.905 329.368 132.553 331.72 128.881 331.72H126.481ZM140.555 334H143.099V318.16H140.555V334ZM146.134 326.08C146.038 330.616 149.902 334.336 154.438 334.264C158.926 334.336 162.862 330.616 162.766 326.08C162.862 321.544 158.926 317.824 154.438 317.896C149.926 317.824 146.062 321.544 146.134 326.08ZM160.15 326.056C160.15 329.44 157.702 331.936 154.462 331.936C151.174 331.936 148.774 329.44 148.774 326.056C148.774 322.72 151.174 320.224 154.462 320.224C157.702 320.224 160.15 322.744 160.15 326.056ZM175.863 318.16L171.303 329.176L166.743 318.16H163.887L170.871 334.264H171.735L178.719 318.16H175.863ZM181.242 334H183.786V318.16H181.242V334ZM186.653 330.832C187.877 332.968 190.037 334.264 192.629 334.264C195.677 334.264 197.933 332.44 197.933 329.68C197.933 327.592 196.709 326.344 194.141 325.168L192.365 324.352C190.805 323.56 190.253 323.344 190.157 322.096C190.157 320.848 191.213 320.176 192.557 320.176C193.901 320.176 195.053 320.848 195.893 322.096L197.669 320.728C196.685 319.024 194.789 317.896 192.557 317.896C189.821 317.896 187.565 319.6 187.565 322.192C187.565 324.304 188.957 325.528 191.261 326.584L193.013 327.4C194.669 328.168 195.341 328.648 195.341 329.776C195.341 331.12 194.237 331.984 192.605 331.984C190.781 331.984 189.509 331 188.453 329.464L186.653 330.832ZM201.019 327.592C201.019 331.768 203.755 334.264 207.547 334.264C211.267 334.264 214.027 331.768 214.027 327.592V318.16H211.483V327.76C211.483 330.448 209.851 331.936 207.547 331.936C205.219 331.936 203.563 330.448 203.563 327.76V318.16H201.019V327.592ZM217.851 334H228.555V331.72H220.395V326.704H226.323V324.496H220.395V320.44H228.267V318.16H217.851V334ZM231.515 334H241.307V331.72H234.059V318.16H231.515V334Z" fill="white"/>
<path d="M218.579 164.724H114.04C112.728 164.724 111.664 165.788 111.664 167.1V224.121C111.664 230.669 116.991 236 123.543 236H209.075C215.628 236 220.954 230.669 220.954 224.121V167.1C220.955 165.788 219.89 164.724 218.579 164.724ZM216.203 224.121C216.203 228.05 213.005 231.248 209.075 231.248H123.543C119.614 231.248 116.416 228.05 116.416 224.121V169.475H216.203V224.121Z" fill="white"/>
<path d="M220.879 142.737L216.835 127.394C215.903 123.663 212.093 121.321 208.315 122.176L112.586 144.89C110.704 145.317 109.112 146.462 108.1 148.107C107.088 149.751 106.789 151.689 107.264 153.571L111.74 171.266C112.006 172.34 112.975 173.058 114.04 173.058C114.23 173.058 114.425 173.039 114.629 172.987C115.897 172.668 116.667 171.376 116.344 170.102L116.083 169.071L219.106 145.664C219.733 145.517 220.279 145.127 220.612 144.576C220.95 144.025 221.04 143.36 220.879 142.737ZM114.919 164.462L111.868 152.416C111.712 151.789 111.816 151.143 112.149 150.592C112.486 150.045 113.018 149.665 113.665 149.513L209.393 126.804C209.565 126.762 209.74 126.743 209.911 126.743C210.976 126.743 211.959 127.474 212.23 128.572L215.656 141.568L114.919 164.462Z" fill="white"/>
<path d="M134.111 164.971C132.933 164.396 131.517 164.861 130.918 166.035L121.415 185.042C120.83 186.216 121.305 187.641 122.479 188.231C122.826 188.402 123.187 188.482 123.544 188.482C124.413 188.482 125.254 188.002 125.672 187.166L135.176 168.159C135.76 166.985 135.285 165.56 134.111 164.971Z" fill="white"/>
<path d="M157.866 164.971C156.692 164.396 155.266 164.861 154.677 166.035L145.173 185.042C144.589 186.216 145.064 187.641 146.238 188.231C146.585 188.402 146.946 188.482 147.302 188.482C148.172 188.482 149.013 188.002 149.426 187.166L158.93 168.159C159.514 166.985 159.039 165.56 157.866 164.971Z" fill="white"/>
<path d="M181.624 164.971C180.455 164.396 179.03 164.861 178.436 166.035L168.932 185.042C168.348 186.216 168.823 187.641 169.997 188.231C170.343 188.402 170.705 188.482 171.061 188.482C171.931 188.482 172.772 188.002 173.185 187.166L182.689 168.159C183.273 166.985 182.798 165.56 181.624 164.971Z" fill="white"/>
<path d="M205.383 164.971C204.205 164.396 202.789 164.861 202.195 166.035L192.691 185.042C192.107 186.216 192.582 187.641 193.755 188.231C194.102 188.402 194.464 188.482 194.82 188.482C195.69 188.482 196.531 188.002 196.944 187.166L206.448 168.159C207.032 166.985 206.557 165.56 205.383 164.971Z" fill="white"/>
<path d="M218.579 183.73H114.04C112.728 183.73 111.664 184.795 111.664 186.106C111.664 187.418 112.728 188.482 114.04 188.482H218.579C219.895 188.482 220.955 187.418 220.955 186.106C220.955 184.795 219.89 183.73 218.579 183.73Z" fill="white"/>
<path d="M137.015 160.575L120.65 144.21C119.723 143.283 118.217 143.283 117.29 144.21C116.363 145.137 116.363 146.643 117.29 147.57L133.655 163.939C134.121 164.4 134.729 164.633 135.337 164.633C135.946 164.633 136.554 164.4 137.015 163.935C137.941 163.008 137.941 161.502 137.015 160.575Z" fill="white"/>
<path d="M160.26 155.296L143.881 138.931C142.955 138.004 141.448 138.004 140.522 138.931C139.595 139.857 139.595 141.364 140.522 142.29L156.896 158.655C157.362 159.116 157.97 159.349 158.578 159.349C159.187 159.349 159.795 159.117 160.26 158.655C161.187 157.729 161.187 156.222 160.26 155.296Z" fill="white"/>
<path d="M183.487 150.017L167.136 133.647C166.21 132.721 164.703 132.721 163.777 133.647C162.85 134.574 162.85 136.08 163.777 137.007L180.127 153.376C180.593 153.837 181.201 154.07 181.81 154.07C182.418 154.07 183.026 153.842 183.487 153.376C184.414 152.45 184.414 150.943 183.487 150.017Z" fill="white"/>
<path d="M206.704 144.742L190.348 128.373C189.422 127.446 187.915 127.446 186.989 128.373C186.062 129.299 186.062 130.806 186.989 131.732L203.344 148.102C203.81 148.563 204.418 148.796 205.026 148.796C205.635 148.796 206.243 148.563 206.704 148.102C207.631 147.175 207.631 145.669 206.704 144.742Z" fill="white"/>
</svg>
